/* XPM */
static char *result[] = {
/* columns rows colors chars-per-pixel */
"64 64 102 2 ",
"   c #030303",
".  c #080607",
"X  c #080708",
"o  c #0B0B0B",
"O  c #110E0E",
"+  c #170E10",
"@  c #131212",
"#  c #191617",
"$  c #1C1B1B",
"%  c #231416",
"&  c #211D1E",
"*  c #2C191D",
"=  c #242222",
"-  c #292626",
";  c #292728",
":  c #2C2A2A",
">  c #372628",
",  c #312E2E",
"<  c #322F30",
"1  c #343131",
"2  c #3A3737",
"3  c #3C393A",
"4  c #403D3D",
"5  c #53373C",
"6  c #5B3C41",
"7  c #6D3C45",
"8  c #723D47",
"9  c #743F49",
"0  c #454242",
"q  c #4A4747",
"w  c #4E4A4A",
"e  c #524E4E",
"r  c #534F50",
"t  c #555151",
"y  c #5A5556",
"u  c #5E595A",
"i  c #764750",
"p  c #625D5D",
"a  c #655F60",
"s  c #656061",
"d  c #6A6565",
"f  c #6C6867",
"g  c #6C6768",
"h  c #6E6969",
"j  c #726C6D",
"k  c #756F70",
"l  c #757171",
"z  c #7B7576",
"x  c #7F7A7A",
"c  c #824651",
"v  c #985460",
"b  c #A15966",
"n  c #827C7C",
"m  c #AC606E",
"M  c #B36573",
"N  c #B86675",
"B  c #C86F7F",
"V  c #857F80",
"C  c #D07586",
"Z  c #D37788",
"A  c #D6798A",
"S  c #DB7B8D",
"D  c #878282",
"F  c #8B8485",
"G  c #8F8889",
"H  c #928B8C",
"J  c #988E8F",
"K  c #968F90",
"L  c #998F90",
"P  c #969191",
"I  c #9B9495",
"U  c #9E9798",
"Y  c #9F9899",
"T  c #A19798",
"R  c #A39B9C",
"E  c #A69FA0",
"W  c #ACA4A4",
"Q  c #AFA8A9",
"!  c #B1A7A7",
"~  c #B4AAAB",
"^  c #B8ADAE",
"/  c #B7AFB0",
"(  c #BBAFB0",
")  c #BCB2B3",
"_  c #BFB7B8",
"`  c #BFB9B9",
"'  c #C2B6B7",
"]  c #C3B7B8",
"[  c #C5BABB",
"{  c #CABDBE",
"}  c #C7BFC0",
"|  c #C9BFC0",
" . c #CDC4C5",
".. c #CFC6C8",
"X. c #D0C6C7",
"o. c #D0C7C8",
"O. c #D4CBCC",
"+. c #D8CECF",
"@. c #D8CFD0",
"#. c #DBD1D2",
"$. c #E2D8D9",
"%. c None",
/* pixels */
"%.%.%.%.%.%.%.%.%.%.%.%.%.%.%.%.%.%.%.%.%.%.%.%.%.%.%.%.%.%.%.%.%.%.%.%.%.%.%.%.%.%.%.%.%.%.%.%.%.%.%.%.%.%.%.%.%.%.%.%.%.%.%.%.",
"%.%.%.%.%.%.%.%.%.%.%.%.%.%.%.%.%.                        %.%.%.%.%.%.%.%.%.%.%.%.%.%.%.%.%.%.%.%.%.%.%.%.%.%.%.%.%.%.%.%.%.%.%.",
"%.%.%.%.%.%.%.%.%.%.%.%.%.%.%.%.    @ < y F Y I l - X X                     %.%.%.%.%.%.%.%.%.%.%.%.%.%.%.%.%.%.%.%.%.%.%.%.%.%.",
"%.%.%.%.%.%.%.%.%.%.%.%.%.%.%.%.  X #.#.+.@.) = O.+.#.O.[ [ ) P G x : ;               %.%.%.%.%.%.%.%.%.%.%.%.%.%.%.%.%.%.%.%.%.",
"%.%.%.%.%.%.%.%.%.%.%.%.%.%.%.%.  ~ O.O.o.O.-   { O.X.X.O.O.O.O.@.O.....) R R W s @             %.%.%.%.%.%.%.%.%.%.%.%.%.%.%.%.",
"%.%.%.%.%.%.%.%.%.%.%.%.%.%.%.     .o.o.o.+..   W O.....X...o.o.o.X.o.o.O.O.O.O.+.O.} Y H y $ .         %.%.%.%.%.%.%.%.%.%.%.%.",
"%.%.%.%.%.%.%.%.%.%.%.%.%.%.%.  X @.+.+.@.-     P O.O.O.X.o.o.o.o.o.o.o.o.o...o.o.o.O.+.#.+.#.@.{ ~ H X   %.%.%.%.%.%.%.%.%.%.%.",
"%.%.%.%.%.%.%.%.%.%.%.%.%.%.%.  # X o y u X .   3 #.O.#.[ o.o.o.o.o.o.o.o.o.o.o.o.X.X.O.Y I O.o.o.O.O.@.)   %.%.%.%.%.%.%.%.%.%.",
"%.%.%.%.%.%.%.%.%.%.%.%.%.%.%.  t o                 . . o O.o.o.o.o.o.o.o.o.o.o.o.o.O.u & W O.o.o.o.o.o.#.X %.%.%.%.%.%.%.%.%.%.",
"%.%.%.%.%.%.%.%.%.%.%.%.%.%.%.  Y @.$ X               $ ) O.o.o.o.o.o.o.X.X.o.o.o.o.o.  e @.o.o.o.o.o.o.+.X   %.%.%.%.%.%.%.%.%.",
"%.%.%.%.%.%.%.%.%.%.%.%.%.%.    } o.#.X..           Q O.O.X.o.o.O.@.#.O.O.X.o.X.o.@.X o O.o.o.O...X...o.+.X   %.%.%.%.%.%.%.%.%.",
"%.%.%.%.%.%.%.%.%.%.%.%.%.%.     .O.[ [           . #.o.o.o.o.O.Q z l P ..O.o.X.O.o . [ O.o.O.P z O.O.{ ..o   %.%.%.%.%.%.%.%.%.",
"%.%.%.%.%.%.%.%.%.%.%.%.%.%.    X. .3             . O.O.O.O.+.-   . . .   D +.#.W   W O.O.O.@.  . h X.t K X %.%.%.%.%.%.%.%.%.%.",
"%.%.%.%.%.%.%.%.%.%.%.%.%.%.    .. ..       .       O.O.O.O.# o > i 8 i . X  .#.o @ W O.....W   . +.X.t D o %.%.%.%.%.%.%.%.%.%.",
"%.%.%.%.%.%.%.%.%.%.%.%.%.%.    @.@       t Q -   . #. .U & o 5 B S S S M O X o o z O.O.O.@.o   @ #.X = t X %.%.%.%.%.%.%.%.%.%.",
"%.%.%.%.%.%.%.%.%.%.%.%.%.%.  X #.X X h ) O.O...     .=       m A C Z Z S N     y O...R I s   X #.$   } # . %.%.%.%.%.%.%.%.%.%.",
"%.%.%.%.%.%.%.%.%.%.%.%.%.%.  @ +.O.@.+.O.o.o.O.' o I . F '   N A Z Z Z A m   & ) O..       . @.W   U +.@   %.%.%.%.%.%.%.%.%.%.",
"%.%.%.%.%.%.%.%.%.%.%.%.%.%.  - #...o.o...o.X...O.O.  O { [ . o S Z Z A C . X P $.)         / #.. # +.o.o O %.%.%.%.%.%.%.%.%.%.",
"%.%.%.%.%.%.%.%.%.%.%.%.%.%.  0 @...o.o.....X.O.+.O . ] ' ] F   b S S S * X O.O.F F x # ; R #.o . O.o.O.O - %.%.%.%.%.%.%.%.%.%.",
"%.%.%.%.%.%.%.%.%.%.%.%.%.%.  h O.O.o.o.......O.k   R { { { { o . % 8 i . z w .     y [ [ #.4 X / O...O.O 1 %.%.%.%.%.%.%.%.%.%.",
"%.%.%.%.%.%.%.%.%.%.%.%.%.%.  Y O.o.o.o.X.X.X.+.. : V : . o , { j . .   o D     w . . @.O.[ . G O.O.X.O.o @ %.%.%.%.%.%.%.%.%.%.",
"%.%.%.%.%.%.%.%.%.%.%.%.%.%.  W O.o.o.o.X.X.+.o   ~ ~ # o o o ] [ [   X W   . h #.$ X @. .. o O.....O.O.o   %.%.%.%.%.%.%.%.%.%.",
"%.%.%.%.%.%.%.%.%.%.%.%.%.%.  [ O...o.o.X.O.l   n - , o J ( ] ] { h . n o . #.#.[   o #.o . O.o.X.o.o.O.. %.%.%.%.%.%.%.%.%.%.%.",
"%.%.%.%.%.%.%.%.%.%.%.%.%.  . O.X.X.o.X.X.+.. 1 '   .       z { P . # #.. X [ [ o . ` y   [ O.o.o.o.o.`   %.%.%.%.%.%.%.%.%.%.%.",
"%.%.%.%.%.%.%.%.%.%.%.%.%.  . #.X.o.o.o.+.o . [ = O n # w @ ] ^   o @.@.o       . 2 ..  t #.o.o.o.o.O.Y . %.%.%.%.%.%.%.%.%.%.%.",
"%.%.%.%.%.%.%.%.%.%.%.%.%.  . @.X.o.O.O.@   J [ = J R @ I O ] = X +.) O  .: X . ' #..   $ R O.X.o.o.O.w   %.%.%.%.%.%.%.%.%.%.%.",
"%.%.%.%.%.%.%.%.%.%.%.%.%.  X @.o.O.O.@ . l | ' ' ] ] ( [ { n . D [   o O.Y O.O.+.@ . ^ # t #.X.o.o.O.=   %.%.%.%.%.%.%.%.%.%.%.",
"%.%.%.%.%.%.%.%.%.%.%.%.%.  O O.o.O.P o   o & ' ' ' ' ' [ R   @ #.X   3 X   n { F   T )   X [ O.o.o.O..   %.%.%.%.%.%.%.%.%.%.%.",
"%.%.%.%.%.%.%.%.%.%.%.%.%.  q O.o.O.P P < = . ) ] ' ' ] '   o #.    o o     o o.. - R o + # : O.o...@..   %.%.%.%.%.%.%.%.%.%.%.",
"%.%.%.%.%.%.%.%.%.%.%.%.%.  j O...O.O.O.#./   ) ] ' ' { @ . } X       $ t [ z o . { o * N X < O.o.O.O.    %.%.%.%.%.%.%.%.%.%.%.",
"%.%.%.%.%.%.%.%.%.%.%.%.%.  d O.....O.o.: O . ' ' ' { &   P =   d     x $.I o   ) ^ O 6 7 o O.o.o.O.^   %.%.%.%.%.%.%.%.%.%.%.%.",
"%.%.%.%.%.%.%.%.%.%.%.%.%.  W O.X.O.` o .   o } ' [ I   E ) I ' #.    G [ 0 o H [ [ $ X   o @.o.o.O.W   %.%.%.%.%.%.%.%.%.%.%.%.",
"%.%.%.%.%.%.%.%.%.%.%.%.%.. O.O.X.O.` O O c . E ' _ . < #.O.O.O.#..   I w X = { ' [ y + & ! O.X.o.O.Y   %.%.%.%.%.%.%.%.%.%.%.%.",
"%.%.%.%.%.%.%.%.%.%.%.%.%.  #.o.X.O.E D   v o $ | . . ..o < [ { O.1 q j . o ' [ ' { @ . #.O.X.X.o.@.h   %.%.%.%.%.%.%.%.%.%.%.%.",
"%.%.%.%.%.%.%.%.%.%.%.%.%.X @.o.X.O.I .   * @ p @ .  .)       $ 1 W U X X { ' ' ' { z   . u O.....#.j   %.%.%.%.%.%.%.%.%.%.%.%.",
"%.%.%.%.%.%.%.%.%.%.%.%.  o O.o...O.O.I .   G U   E #.X . F     e / 0 . 4 ! ' [ ' ] ^ ! 4 . O.O.X...2   %.%.%.%.%.%.%.%.%.%.%.%.",
"%.%.%.%.%.%.%.%.%.%.%.%.  # O.o.X.o.#.@.$ o [ . O #.:   - W ) } #.s . O d u { { ' ' [ ) . o +.o.O.) .   %.%.%.%.%.%.%.%.%.%.%.%.",
"%.%.%.%.%.%.%.%.%.%.%.%.  P O.o.o.o.@.#.j . o . j <       W )  .#.o X O.s p { { ' ' [ 1   h O.o.O._     %.%.%.%.%.%.%.%.%.%.%.%.",
"%.%.%.%.%.%.%.%.%.%.%.%.  o.o.o.o.o.O.@.x ; . q V .         o [ r   = + .   n ! [ ' d . y o.o.o.O.)     %.%.%.%.%.%.%.%.%.%.%.%.",
"%.%.%.%.%.%.%.%.%.%.%.    @.o.o.o.o.o.O. .o o [ o   U +.E   X W   1 4 h G # . h  .P   3 O.O.o.o.O.n     %.%.%.%.%.%.%.%.%.%.%.%.",
"%.%.%.%.%.%.%.%.%.%.%.  . O.o.o.o.o.O.o.o . D O.# . . G ..! / . o [ [ [ X.p . d ^ . : o.O.X.X.o.@.p   %.%.%.%.%.%.%.%.%.%.%.%.%.",
"%.%.%.%.%.%.%.%.%.%.%.  = O.o.o.o.o.#.$ o h O.O.O.W     y @.@ X { ' ' ' { p X e . & ..O.o.o.o.o.O.y   %.%.%.%.%.%.%.%.%.%.%.%.%.",
"%.%.%.%.%.%.%.%.%.%.%.  I O.o.o.o.O.u o q ` O.O.O...y   e z   ! ] ' ' ' ) $   . , X.O.X.o.o.X.o...:   %.%.%.%.%.%.%.%.%.%.%.%.%.",
"%.%.%.%.%.%.%.%.%.%.%.  { o.o.o.O.W   $ E }  .O...O.{ P R   : { ' ' ' ] !     0 [ O.X.X.o.o.o.O...$   %.%.%.%.%.%.%.%.%.%.%.%.%.",
"%.%.%.%.%.%.%.%.%.%.%.  O.o.o.o...X = G #.o   . H O.O.+.  o { ' ' ' ' { k   d X.O...o.o.o.o.o.O.W     %.%.%.%.%.%.%.%.%.%.%.%.%.",
"%.%.%.%.%.%.%.%.%.%.    o.O.o.O.o o o.O.O . u -   X.+.$   [ ] ' ' ' ' { p o +.+.....o.o.o.o.o.+.z     %.%.%.%.%.%.%.%.%.%.%.%.%.",
"%.%.%.%.%.%.%.%.%.%.  X O...@.@ X  .#.o o 2  .I   U I   , ! ] ] ' ' ' ' o O O.O.X.o.o.o.o.o.o.+.z   %.%.%.%.%.%.%.%.%.%.%.%.%.%.",
"%.%.%.%.%.%.%.%.%.%.  @ O.O.$ X P j . .   . o .   T   @ o ' ' ' ' ' ] (   f o.O.X.X.o.o.o.o.o.#.z   %.%.%.%.%.%.%.%.%.%.%.%.%.%.",
"%.%.%.%.%.%.%.%.%.%.  d O.0 o h 2             = x X o 2 @ [ ' ' ' ' } z X @.o.o.o.o.o.o.o.o.X.+.l   %.%.%.%.%.%.%.%.%.%.%.%.%.%.",
"%.%.%.%.%.%.%.%.%.%.  H { : u O.o . x z . ; } +.3 . #.o 1 { ' ' ' ' } O X O.o.o.o.o.o.o.o.o.X.O.q   %.%.%.%.%.%.%.%.%.%.%.%.%.%.",
"%.%.%.%.%.%.%.%.%.%.  W @.f W O.O.) #.D . @  .P . n O.. U ] ' ' ' ' [   f O.o.o.o.o.o.o.o.o...O.:   %.%.%.%.%.%.%.%.%.%.%.%.%.%.",
"%.%.%.%.%.%.%.%.%.%.  [ o.o.O.o.O.O.@.O .   f . o O.G . ' ' ' ' ' ' z   ..O.....o.o.o.o.o.....o.o   %.%.%.%.%.%.%.%.%.%.%.%.%.%.",
"%.%.%.%.%.%.%.%.%.%.   .o.o.o.o.o.o.o.O F l - X #.@.@ . } ' ' ' ' [ . o #.X.X...o.o.o.o.o.o.o. .    %.%.%.%.%.%.%.%.%.%.%.%.%.%.",
"%.%.%.%.%.%.%.%.%.%.  Q O.o.o.o.o.o.o.o.o.@.` { o. .  2 [ ' ' ' ' [   K O...X.O.o.o.o.o.o.o.+.U     %.%.%.%.%.%.%.%.%.%.%.%.%.%.",
"%.%.%.%.%.%.%.%.%.%.  # o.@.@.+.O...o.o.o.o.O...O./   / ' ' ' ' [ @ . | O...o.o.o.o.o.o.o.o.+.K   %.%.%.%.%.%.%.%.%.%.%.%.%.%.%.",
"%.%.%.%.%.%.%.%.%.%.%.      f U [ O.+.@.@.+.O...O.V . } ' ' ' ' [ o w O.o.o.o.o.o.o.o.o.o.o.O.t   %.%.%.%.%.%.%.%.%.%.%.%.%.%.%.",
"%.%.%.%.%.%.%.%.%.%.%.%.%.          . o a F [  .X.H n  .[ ' [ ' f . I O.o.X.X.o...X.o.o.o.o.o.    %.%.%.%.%.%.%.%.%.%.%.%.%.%.%.",
"%.%.%.%.%.%.%.%.%.%.%.%.%.%.%.%.%.                . . . # z U [ O @ } O.O.O.o.O.O.o.o.o.o.o.O.o   %.%.%.%.%.%.%.%.%.%.%.%.%.%.%.",
"%.%.%.%.%.%.%.%.%.%.%.%.%.%.%.%.%.%.%.%.%.%.%.%.%.%.          . .   o O o O 2 P ..O.+.O.@.O.@.. %.%.%.%.%.%.%.%.%.%.%.%.%.%.%.%.",
"%.%.%.%.%.%.%.%.%.%.%.%.%.%.%.%.%.%.%.%.%.%.%.%.%.%.%.%.%.%.%.%.%.%.%.# o           . . . X o = %.%.%.%.%.%.%.%.%.%.%.%.%.%.%.%.",
"%.%.%.%.%.%.%.%.%.%.%.%.%.%.%.%.%.%.%.%.%.%.%.%.%.%.%.%.%.%.%.%.%.%.%.%.%.%.%.%.%.%.%.      . %.%.%.%.%.%.%.%.%.%.%.%.%.%.%.%.%.",
"%.%.%.%.%.%.%.%.%.%.%.%.%.%.%.%.%.%.%.%.%.%.%.%.%.%.%.%.%.%.%.%.%.%.%.%.%.%.%.%.%.%.%.%.%.%.%.%.%.%.%.%.%.%.%.%.%.%.%.%.%.%.%.%.",
"%.%.%.%.%.%.%.%.%.%.%.%.%.%.%.%.%.%.%.%.%.%.%.%.%.%.%.%.%.%.%.%.%.%.%.%.%.%.%.%.%.%.%.%.%.%.%.%.%.%.%.%.%.%.%.%.%.%.%.%.%.%.%.%.",
"%.%.%.%.%.%.%.%.%.%.%.%.%.%.%.%.%.%.%.%.%.%.%.%.%.%.%.%.%.%.%.%.%.%.%.%.%.%.%.%.%.%.%.%.%.%.%.%.%.%.%.%.%.%.%.%.%.%.%.%.%.%.%.%."
};
