/* XPM */
static char *result[] = {
/* columns rows colors chars-per-pixel */
"64 64 198 2 ",
"   c #010000",
".  c #080606",
"X  c #0B0906",
"o  c #0C0B0A",
"O  c #0D0608",
"+  c #120E0C",
"@  c #100C05",
"#  c #13100E",
"$  c #1B100D",
"%  c #0E0D12",
"&  c #1A1513",
"*  c #1D1816",
"=  c #171417",
"-  c #28190E",
";  c #221D1A",
":  c #2E1D12",
">  c #351B17",
",  c #2C251C",
"<  c #24211F",
"1  c #342215",
"2  c #3C241A",
"3  c #372419",
"4  c #1E1C28",
"5  c #201E26",
"6  c #252323",
"7  c #2B2624",
"8  c #2C2A2B",
"9  c #23202B",
"0  c #322B24",
"q  c #332D2A",
"w  c #382E26",
"e  c #3C3226",
"r  c #3A312D",
"t  c #262334",
"y  c #29273B",
"u  c #2B2836",
"i  c #342F37",
"p  c #343133",
"a  c #3A3432",
"s  c #3B3639",
"d  c #43291B",
"f  c #492E1F",
"g  c #4A251C",
"h  c #452420",
"j  c #542B23",
"k  c #4B3021",
"l  c #453A33",
"z  c #443D3B",
"x  c #552B2E",
"c  c #753D37",
"v  c #6D3427",
"b  c #4C423D",
"n  c #52453E",
"m  c #7C5138",
"M  c #2F2C42",
"N  c #302D43",
"B  c #413B43",
"V  c #484244",
"C  c #554941",
"Z  c #564C47",
"A  c #5D514A",
"S  c #5A5352",
"D  c #524D52",
"F  c #69584E",
"G  c #635954",
"H  c #6A5E59",
"J  c #7A4743",
"K  c #6C615D",
"L  c #746256",
"P  c #7E6A5E",
"I  c #655F62",
"U  c #6E6666",
"Y  c #766A65",
"T  c #7B7270",
"R  c #873F2F",
"E  c #874030",
"W  c #884232",
"Q  c #80453E",
"!  c #934736",
"~  c #A7503F",
"^  c #9C7834",
"/  c #894C45",
"(  c #844740",
")  c #8E514A",
"_  c #94544C",
"`  c #9A5A53",
"'  c #9A495C",
"]  c #9F6150",
"[  c #806B5F",
"{  c #BA6350",
"}  c #A85662",
"|  c #86746A",
" . c #937B6E",
".. c #8B7D78",
"X. c #877973",
"o. c #967E70",
"O. c #AE7065",
"+. c #CB5E4D",
"@. c #C15876",
"#. c #C47B79",
"$. c #FC6176",
"%. c #FB647A",
"&. c #FA697E",
"*. c #AB8438",
"=. c #B48938",
"-. c #BE923B",
";. c #CB9B3E",
":. c #C19338",
">. c #988479",
",. c #8E8078",
"<. c #A48A7B",
"1. c #AA8F7F",
"2. c #AA907F",
"3. c #DDA949",
"4. c #DCA846",
"5. c #E2AD4A",
"6. c #867F83",
"7. c #D26683",
"8. c #F96D88",
"9. c #F67594",
"0. c #F57B93",
"q. c #F57698",
"w. c #F47C9A",
"e. c #F67383",
"r. c #9A8B84",
"t. c #968E91",
"y. c #9E9699",
"u. c #AE9382",
"i. c #A3938B",
"p. c #BB9D8C",
"a. c #B09484",
"s. c #AC9B93",
"d. c #B09F96",
"f. c #B3898C",
"g. c #BFA18F",
"h. c #B4A29A",
"j. c #AFA6AA",
"k. c #B9AAA5",
"l. c #BCB3B7",
"z. c #C49C9C",
"x. c #F3849D",
"c. c #F28C9E",
"v. c #C5A693",
"b. c #C9A996",
"n. c #CDAD9A",
"m. c #D0AF9C",
"M. c #D1B09C",
"N. c #E0B59F",
"B. c #F386A1",
"V. c #F28CA4",
"C. c #F29BA4",
"Z. c #F295A9",
"A. c #F19CAC",
"S. c #F290A6",
"D. c #C5B2A8",
"F. c #D6B4A1",
"G. c #DBB9A4",
"H. c #D8B6A2",
"J. c #CEBAB0",
"K. c #C2B9BD",
"L. c #D1BCB3",
"P. c #EEA5A6",
"I. c #F3AAAD",
"U. c #E2BEA9",
"Y. c #E7BBA9",
"T. c #EFA6B1",
"R. c #EFACB4",
"E. c #EDB6B9",
"W. c #F4B4BB",
"Q. c #F3AFB0",
"!. c #D9C4BA",
"~. c #DEC8BE",
"^. c #D6C1B7",
"/. c #E7C1AD",
"(. c #EAC5AF",
"). c #ECC6B0",
"_. c #EEC9B2",
"`. c #E7C4B2",
"'. c #F2CBB5",
"]. c #F6CFB8",
"[. c #F8D1B9",
"{. c #D2C7CC",
"}. c #DACFD4",
"|. c #DED2D7",
" X c #E4CEC3",
".X c #EACDC5",
"XX c #ECC6C1",
"oX c #EAD2C7",
"OX c #EAD3C8",
"+X c #ECD5CB",
"@X c #F1DACE",
"#X c #E4D9DD",
"$X c #F4DCD1",
"%X c #EBDFE4",
"&X c #F3E6EB",
"*X c #F5E9EE",
"=X c #F4E7EC",
"-X c None",
/* pixels */
"-X-X-X-X-X-X-X-X-X-X-X-X-X-X-X-X-X-X-X-X-X-X-X-X-X-X-X-X-X-X-X-X-X-X-X-X-X-X-X-X-X-X-X-X-X-X-X-X-X-X-X-X-X-X-X-X-X-X-X-X-X-X-X-X",
"-X-X-X-X-X-X-X-X-X-X-X-X-X-X-X-X-X-X-X-X-X-X-X-X-X-X-X-X-X-X-X-X-X-X-X-X-X-X-X-X-X-X-X-X-X-X-X-X-X-X-X-X-X-X-X-X-X-X-X-X-X-X-X-X",
"-X-X-X-X-X-X-X-X-X-X-X-X-X-X-X-X-X-X-X-X-X-X-X-X-X-X-X-X-X-X-X-X-X-X-X-X-X-X-X-X-X-X-X-X-X-X-X-X-X-X-X-X-X-X-X-X-X-X-X-X-X-X-X-X",
"-X-X-X-X-X-X-X-X-X-X-X-X-X-X-X-X-X-X-X-X-X-X-X-X-X-X-X-X-X-X-X-X-X-X-X-X-X-X-X-X-X-X-X-X-X-X-X-X-X-X-X-X-X-X-X-X-X-X-X-X-X-X-X-X",
"-X-X-X-X-X-X-X-X-X-X-X-X-X-X-X-X-X-X-X-X-X-X-X-X-X-X-X-X-X-X-X-X-X-X-X-X-X-X-X-X-X-X-X-X-X-X-X-X-X-X-X-X-X-X-X-X-X-X-X-X-X-X-X-X",
"-X-X-X-X-X-X-X-X-X-X-X-X-X-X-X-X-X-X-X-X-X-X-X-X-X-X-X-X-X-X-X-X-X-X-X-X-X-X-X-X-X-X-X-X-X-X-X-X-X-X-X-X-X-X-X-X-X-X-X-X-X-X-X-X",
"-X-X-X-X-X-X-X-X-X-X-X-X-X-X-X-X-X-X-X-X-X-X-X-X-X-X-X-X-X-X-X-X-X-X-X-X-X-X-X-X-X-X-X-X-X-X-X-X-X-X-X-X-X-X-X-X-X-X-X-X-X-X-X-X",
"-X-X-X-X-X-X-X-X-X-X-X-X-X-X-X-X-X-X-X-X-X-X-X-X-X-X-X-X-X-X-X-X-X-X-X-X-X-X-X-X-X-X-X-X-X-X-X-X-X-X-X-X-X-X-X-X-X-X-X-X-X-X-X-X",
"-X-X-X-X-X-X-X-X-X-X-X-X-X-X-X-X-X-X-X-X-X-X-X-X-X-X-X-X-X-X-X-X-X-X-X-X-X-X-X-X-X-X-X-X-X-X-X-X-X-X-X-X-X-X-X-X-X-X-X-X-X-X-X-X",
"-X-X-X-X-X-X-X-X-X-X-X-X-X-X-X-X-X-X-X-X-X-X-X-X-X-X-X-X-X-X-X-X-X-X-X-X-X-X-X-X-X-X-X-X-X-X-X-X-X-X-X-X-X-X-X-X-X-X-X-X-X-X-X-X",
"-X-X-X-X-X-X-X-X-X-X-X-X-X-X-X-X-X-X-X-X-X-X-X-X-X-X-X-X-X-X-X-X-X-X-X-X-X-X-X-X-X-X-X-X    -X-X-X-X-X-X-X-X-X-X-X-X-X-X-X-X-X-X",
"-X-X-X-X-X-X-X-X-X-X-X-X-X-X-X-X-X-X-X-X-X-X-X-X-X-X-X-X-X-X-X-X-X-X-X-X-X-X-X  -X-X-X  . o   -X-X-X-X-X-X-X-X-X-X-X-X-X-X-X-X-X",
"-X-X-X-X-X-X-X-X-X-X      * C r * +     -X-X-X-X-X-X-X-X-X-X-X-X-X-X-X-X-X-X          p   6   -X-X-X-X-X-X-X-X-X-X-X-X-X-X-X-X-X",
"-X-X-X-X-X-X-X-X     .'.'.'._.'.'.'.G.C     -X-X-X-X-X-X-X-X-X          -X    -X.   8   &X*X          -X-X-X-X-X-X-X-X-X-X-X-X-X",
"-X-X-X-X-X-X-X  _.(.(.(.(.(.(.(.(.(.(.(.(.'.  . -X-X-X-X-X  N N N N N N y . &Xt.}.#X*X{.}.%X6 D 6     -X-X-X-X-X-X-X-X-X-X-X-X-X",
"-X-X-X-X-X-X  a.(.(.(.(.(.(.(.(.(.(.(.(.(.(.|     -X-X-X-X  N N M N N N y o &Xt.}.#X*X{.}.%X%X&X}.    -X-X-X-X-X-X-X-X-X-X-X-X-X",
"-X-X-X-X-X  L '.(.(.(.(.(.(.(.(.(.(.(.(.(.(.(.).+   -X-X  N N N N N N N t   j.T r.y.l.j.{.&X%X|.%X        -X-X-X-X-X-X-X-X-X-X-X",
"-X-X-X-X    H.).(.(.(.(.(.(.(.(.(.(.(.(.(.(.(.(.  . -X    N N N N N N 4       % i i p B D j.l.y.*Xo o V 8         -X-X-X-X-X-X-X",
"-X-X-X  =.  '.).(.(.(.(.(.(.(.(.(.(.(.(.(.(.(.(.(./.  t N N N N N   Z D.@X$X@X@X..            = u l.l.U   N N N N N     -X-X-X-X",
"-X-X-X@ ;.  '.(.(.(.(._.'.'.(.(.(.(.(.(.(.(.(.(.).).  . N N N N   . OX+XOXOXOXOX+Xs.@X$X@X$X+X    I U V   N N N N M N   . -X-X-X",
"-X-X  *.3.  U.).(.(.(.      o.(.(.(.(.(.(.(.(.(.(.(.'.  y N N %   I +XOXOXOXOXOXOXOXOXOX+XoXoX@Xd.% o 8   M M N N N N N   -X-X-X",
"-X-X  5.3.5.  l (.'.  d k k d   '.(.(.(.(.(.(.(.(.U.      N N   s oXOXOXOX XOXOXOXOXOXOXoXOXOXOX+X    .   N N N N N N N N -X-X-X",
"-X-X  3.3.3.5.  2.* o $ : f k 1   P '._.(.(.(._.    1 2   M   a +X+XOXoXOXOXOXOXOXOXOXOX+XoX+XoXOX+X+X^.  M N N N M N N M   -X-X",
"-X-X  3.4.3.4.5.      #     . k 1   & g.H._.(.F.  1 k k   y   Y D..XOXOXoXOXOXoXOXOXOXOXoXOXoXoXOXOXOX@Xr.N N N N N N N N M   -X",
"-X-X  3.3.3.3.3.  & _.].H.<.  : k f   r <.].l # d k f d   t         +X@XOXoXOXoXOXOXoXOXoXOXoX+XOXoXoX+XoXN M N N N N N N N   -X",
"-X  X 3.3.3.3.4.(._.M.<.a.<.F     X * u.'.'.  3     H.'.. u   , e w   r.$X+XOXOXOXOXOXOXoX+X+X@X+X+XoXOX@Xy N N N N N N N N =   ",
"-X  X   - 5.3.;.(.(.).'.'.'.. o 1.# u.'.(._.[       0 G.. t 8 $X@XH # e w 0 +Xs.,.  . , , w e e # @X@XoXOX4 N N M N N M N N N   ",
"-X    <..   5.-.(.(.(.(.U..   * '._._.(.(.'.F . g.b.  a.. t p $X        o o $XL.T e e e .         !.!.OXoX4 N N N N N N N N N -X",
"-X  l (.(.`.  =.(.(.(.(.g.p.2.P v._.(.(.).. |     * ).'.  N p +X+X+Xh.  o l @X@XT #     X X.i.k.K     $X$X5 N N N N N N N N N y ",
"-X  '.(.(._.  :.(.(.(.(.(.(.(.(.(.(.(._.b.  0 o P C (.U.  N B     7     s.X.OXoX+Xi.U   i.h.i.  r.oXoXi.p 5 N N N N N N N N N -X",
"  l ).).(._.  ;.(.(.(.(.(.(.(.(.(.(.(._.v.  _._.(.)._.n.  N z 8 !..   C Y s.@XOXOX^..     `.+XoXL.$X$X..i 9 M N N N N N N N N -X",
"  v.).(.)._.  ;._.(.(.(.(.(.(.(.(.(.(.(.G.. (.(.(.(.'.p.  N S D.OX8     V ~.i.OXOXJ.K         a oX@X@X..u 9 N M N N N N N N N   ",
"  [ (.(.(.'.  ;.'.(.(.).Y.c.c.(.(.(.(._.n.  (.(.(.(.'.>.  N I @XOXoX  OXOX`.s OXOXOXJ.4 @Xd.k.o +X@X$XG       M N N N N N N N   ",
"  o (.(.)._.  =.O Q.w.0.x.x.w.P.(.(.(.(.(.  (.(.(.c.C.. = N U $XOXOXOXOX@Xi.+XOXOXOXOXOXoXOXoX+XOXOXOXOX+Xk.t   N N M N N N   -X",
"-X  ).(.(._.  *.} @.w.8.9.8.9.x.c.(.(.(._.  _.P.C.0.Q..   y ..Z.A.A..XOX+XZ OXOXOXOXoXXXA.A.A.R.E.oXOXOXOX~.s   N N N N M o   -X",
"-X  + (.(.'.  *.:.  7.$.8.$.$.c.x.(.(.(.'.  _.C.0.%.Q.  -X  f.T.A.Z.E.+X^.  OXOXOXOXV.x.V.S.B.B.V. XOXOXOX.XB   N M N N N   -X-X",
"-X-X    '.'.  m 3.5.' &.c.w.q.w.(.(.(.(.(._.G.).x.0..   -X-Xz.%.%.w.T.@XA   +XoXoXR.w.9.$.w.$.%.T.oXoXOXOX XB   N N N N t -X-X-X",
"-X-X-X    o ; 1 3.*.O w.q.q.q.).(.(.(.(.(.'.# '.x.C.. -X-X  e.%.x.oX@Xo % +XOXOXA.R.A.8.8.9.$.q.w.E.OXOXOX Xs         -X-X-X-X-X",
"-X-X-X-X-X      3.    /.Y./.(.(.(.(.(.(.(._.  '.(._.X -X-X  W.B.Z.OX  r.@XoXOXoXoXT.S.B.w.w.B.w.A.A.OXOXOXJ.  -X-X-X-X-X-X-X-X-X",
"-X-X-X-X-X-X-X    + ; ).(.(.(.(.(.(.(.(.(.(.  '.(.(.  -X-X. A.V.OXOX  ~.OXOXOXOXOXOXOXA.A.A.A.OXoXOXoXOXOXi.  -X-X-X-X-X-X-X-X-X",
"-X-X-X-X-X-X-X   .$   ).(.(.(.(.(.(.  . X   . G.(.l   -X-Xx W.+XOX+X  h.!.OXOXOXOXOXOXOXOXOXoXOX].+X+X+X+X  -X-X-X-X-X-X-X-X-X-X",
"-X-X-X-X-X-X-X  7   U.(.(.(.(.(.(.(.b.L L u.v.(.(.A . -X-X  +XOXOX+XZ       OXOXOXOXOXOXOXOXOXOX6 +X+X{.* -X-X-X-X-X-X-X-X-X-X-X",
"-X-X-X-X-X-X-X    /.; _.(.(.(.(.(.(._.)._._._.(.(./.l -X-X  @XOXOXOX.XoX$X XOXoXOXOXOX.XOXOX@Xo         o -X-X-X-X-X-X-X-X-X-X-X",
"-X-X-X-X-X-X-X  U.;   (.(.(.(.(.(.(././._._.(.(.).G.r -X-X  @XOXoX+X_ / / / +XOXOXOXOXOXOXOX$X  -X-X-X-X-X-X-X-X-X-X-X-X-X-X-X-X",
"-X-X-X-X-X-X-X. n.w   (.(.(.(.(.~ R R R E E N.).(./.+ -X-X  $XOX+X+X] c c J _ +XOXoXOXoXOX+X>.  -X-X-X-X-X-X-X-X-X-X-X-X-X-X-X-X",
"-X-X-X-X-X-X-X  n   ).(.(.(.(.(.v ~ ! { ! E O.(.(.'.. -X-X  $XOXoX+XJ > h ( ) +XOXOXOXOXOX@X,.  -X-X-X-X-X-X-X-X-X-X-X-X-X-X-X-X",
"-X-X-X-X-X-X-X    '.(.(.(.(.(.(.E j > : - g ] (.(.(.& -X-X  @XoXoXOXh ` > $ ` OXOXOXOXOXOX$X    -X-X-X-X-X-X-X-X-X-X-X-X-X-X-X-X",
"-X-X-X-X-X-X-X-X'.(.(.(.(.(.(.(.(.R +.+.+.+./._.(.p.* -X-X   X+XoX+Xk > 0 x ( oXOXoXOXoXOX+X  -X-X-X-X-X-X-X-X-X-X-X-X-X-X-X-X-X",
"-X-X-X-X-X-X-X-X  + '.(.(.(.(.(.(.(.E E E E (.(.`.l -X-X-X  G +X+X X} m c ` _ +XOXoXOXOXoX.X  -X-X-X-X-X-X-X-X-X-X-X-X-X-X-X-X-X",
"-X-X-X-X-X-X-X-X-X  <.(.(.(.(.(.(.(._._._._.(.(.C   -X-X-X-X  $XOX+X) #.#.) @XoXOXOXOX+X X    -X-X-X-X-X-X-X-X-X-X-X-X-X-X-X-X-X",
"-X-X-X-X-X-X-X-X-X-X  '.(.(.(.(.(.(.(.(.(.(.(._.  -X-X-X-X-X  . $XOX+X XoX+XOXOXOX+X$Xq o -X-X-X-X-X-X-X-X-X-X-X-X-X-X-X-X-X-X-X",
"-X-X-X-X-X-X-X-X-X-X-X<.'.).(.(.(.(.(.(.(.(.(._.-X-X-X-X-X-X  r $XoX+Xr.OXOXOX+XoXT 7     -X-X-X-X-X-X-X-X-X-X-X-X-X-X-X-X-X-X-X",
"-X-X-X-X-X-X-X-X-X-X-X-X  F (.(./.(.*  ._./._.  -X-X-X-X-X-X     X6   S +XoX XY Y   -X-X-X-X-X-X-X-X-X-X-X-X-X-X-X-X-X-X-X-X-X-X",
"-X-X-X-X-X-X-X-X-X-X-X-X-X-X  '.'.'.  & [.'.2.  -X-X-X-X-X-X-X          $X$X~.    -X-X-X-X-X-X-X-X-X-X-X-X-X-X-X-X-X-X-X-X-X-X-X",
"-X-X-X-X-X-X-X-X-X-X-X-X-X-X-X  &     n   C   -X-X-X-X-X-X-X-X-X-X-X-X    G   . -X-X-X-X-X-X-X-X-X-X-X-X-X-X-X-X-X-X-X-X-X-X-X-X",
"-X-X-X-X-X-X-X-X-X-X-X-X-X-X-X-X-X-X-X-X-X-X-X-X-X-X-X-X-X-X-X-X-X-X-X-X    -X-X-X-X-X-X-X-X-X-X-X-X-X-X-X-X-X-X-X-X-X-X-X-X-X-X",
"-X-X-X-X-X-X-X-X-X-X-X-X-X-X-X-X-X-X-X-X-X-X-X-X-X-X-X-X-X-X-X-X-X-X-X-X-X-X-X-X-X-X-X-X-X-X-X-X-X-X-X-X-X-X-X-X-X-X-X-X-X-X-X-X",
"-X-X-X-X-X-X-X-X-X-X-X-X-X-X-X-X-X-X-X-X-X-X-X-X-X-X-X-X-X-X-X-X-X-X-X-X-X-X-X-X-X-X-X-X-X-X-X-X-X-X-X-X-X-X-X-X-X-X-X-X-X-X-X-X",
"-X-X-X-X-X-X-X-X-X-X-X-X-X-X-X-X-X-X-X-X-X-X-X-X-X-X-X-X-X-X-X-X-X-X-X-X-X-X-X-X-X-X-X-X-X-X-X-X-X-X-X-X-X-X-X-X-X-X-X-X-X-X-X-X",
"-X-X-X-X-X-X-X-X-X-X-X-X-X-X-X-X-X-X-X-X-X-X-X-X-X-X-X-X-X-X-X-X-X-X-X-X-X-X-X-X-X-X-X-X-X-X-X-X-X-X-X-X-X-X-X-X-X-X-X-X-X-X-X-X",
"-X-X-X-X-X-X-X-X-X-X-X-X-X-X-X-X-X-X-X-X-X-X-X-X-X-X-X-X-X-X-X-X-X-X-X-X-X-X-X-X-X-X-X-X-X-X-X-X-X-X-X-X-X-X-X-X-X-X-X-X-X-X-X-X",
"-X-X-X-X-X-X-X-X-X-X-X-X-X-X-X-X-X-X-X-X-X-X-X-X-X-X-X-X-X-X-X-X-X-X-X-X-X-X-X-X-X-X-X-X-X-X-X-X-X-X-X-X-X-X-X-X-X-X-X-X-X-X-X-X",
"-X-X-X-X-X-X-X-X-X-X-X-X-X-X-X-X-X-X-X-X-X-X-X-X-X-X-X-X-X-X-X-X-X-X-X-X-X-X-X-X-X-X-X-X-X-X-X-X-X-X-X-X-X-X-X-X-X-X-X-X-X-X-X-X",
"-X-X-X-X-X-X-X-X-X-X-X-X-X-X-X-X-X-X-X-X-X-X-X-X-X-X-X-X-X-X-X-X-X-X-X-X-X-X-X-X-X-X-X-X-X-X-X-X-X-X-X-X-X-X-X-X-X-X-X-X-X-X-X-X"
};
