/* XPM */
static char *result[] = {
/* columns rows colors chars-per-pixel */
"64 64 138 2 ",
"   c #010000",
".  c #090706",
"X  c #0B0906",
"o  c #0D0B09",
"O  c #110E0D",
"+  c #141007",
"@  c #14110F",
"#  c #1A130B",
"$  c #161210",
"%  c #1A1614",
"&  c #1D1816",
"*  c #241B0C",
"=  c #211616",
"-  c #2E1D12",
";  c #221C19",
":  c #291F1D",
">  c #321F15",
",  c #2D231D",
"<  c #342215",
"1  c #382216",
"2  c #34231A",
"3  c #3C2619",
"4  c #3B2F1A",
"5  c #312925",
"6  c #362D28",
"7  c #382F2A",
"8  c #3F3222",
"9  c #3D332D",
"0  c #442A1B",
"q  c #492E1F",
"w  c #40331C",
"e  c #4A2F20",
"r  c #413127",
"t  c #4B3021",
"y  c #483920",
"u  c #463A33",
"i  c #483D36",
"p  c #4B3F38",
"a  c #54401C",
"s  c #4E413A",
"d  c #52443D",
"f  c #57493C",
"g  c #5B4B3A",
"h  c #604B25",
"j  c #6B5325",
"k  c #6B573C",
"l  c #795F33",
"z  c #554740",
"x  c #554840",
"c  c #5B4C44",
"v  c #5E5047",
"b  c #5F5048",
"n  c #64534A",
"m  c #68564E",
"M  c #69584E",
"N  c #6D5D52",
"B  c #746156",
"V  c #79665C",
"C  c #7E6A5E",
"Z  c #7F6B60",
"A  c #863F2F",
"S  c #874030",
"D  c #8A4232",
"F  c #904534",
"G  c #964938",
"H  c #A4503E",
"J  c #86672D",
"K  c #8B6C35",
"L  c #947335",
"P  c #9C7834",
"I  c #A27D3B",
"U  c #AB5241",
"Y  c #B25341",
"T  c #BE5947",
"R  c #9F6150",
"E  c #A46857",
"W  c #BA6350",
"Q  c #836E62",
"!  c #857164",
"~  c #8E776A",
"^  c #927A6D",
"/  c #967E70",
"(  c #AE7563",
")  c #C65D4C",
"_  c #CE5D4D",
"`  c #D15D4D",
"'  c #A78137",
"]  c #AE8537",
"[  c #AE8639",
"{  c #B28835",
"}  c #BD8F37",
"|  c #B48A38",
" . c #BE923B",
".. c #C1933B",
"X. c #CA9B3E",
"o. c #B48E4F",
"O. c #9C8373",
"+. c #9F8678",
"@. c #BF836E",
"#. c #A08778",
"$. c #A48A7B",
"%. c #AA8F7F",
"&. c #AA907F",
"*. c #CE9E44",
"=. c #DCA846",
"-. c #DDA949",
";. c #E2AE4A",
":. c #E6B04C",
">. c #C4937F",
",. c #AE9382",
"<. c #B19585",
"1. c #B69988",
"2. c #BB9D8C",
"3. c #BFA18F",
"4. c #D6A18B",
"5. c #C3A492",
"6. c #C7A896",
"7. c #C9A996",
"8. c #CEAD9A",
"9. c #DAA691",
"0. c #D0AF9C",
"q. c #D2B19D",
"w. c #E1B59F",
"e. c #D5B4A1",
"r. c #D8B6A2",
"t. c #DCBAA5",
"y. c #E1BCA7",
"u. c #E2BEA9",
"i. c #E5C1AC",
"p. c #EAC5AF",
"a. c #E7C4B2",
"s. c #EBC6B0",
"d. c #EEC9B2",
"f. c #F2CCB5",
"g. c #F5CFB8",
"h. c #F7D0B9",
"j. c #F9D1BA",
"k. c None",
/* pixels */
"k.k.k.k.k.k.k.k.k.k.k.k.k.k.k.k.k.k.k.k.k.k.k.k.k.k.k.k.k.k.k.k.k.k.k.k.k.k.k.k.k.k.k.k.k.k.k.k.k.k.k.k.k.k.k.k.k.k.k.k.k.k.k.k.",
"k.k.k.k.k.k.k.k.k.k.k.k.k.k.k.k.k.k.k.k.k.k.k.k.k.k.k.                k.k.k.k.k.k.k.k.k.k.k.k.k.k.k.k.k.k.k.k.k.k.k.k.k.k.k.k.k.",
"k.k.k.k.k.k.k.k.k.k.k.k.k.k.k.k.k.k.k.k.k.k.k.        6 ,.2.2.,.O.M 5     k.k.k.k.k.k.k.k.k.k.k.k.k.k.k.k.k.k.k.k.k.k.k.k.k.k.k.",
"k.k.k.k.k.k.k.k.k.k.k.k.k.k.k.k.k.k.k.k.      ^ u.f.g.f.f.d.f.f.f.f.d.t.C     k.k.k.k.k.k.k.k.k.k.k.k.k.k.k.k.k.k.k.k.k.k.k.k.k.",
"k.k.k.k.k.k.k.k.k.k.k.k.k.k.k.k.k.k.k.    8.f.f.s.p.p.p.p.p.p.p.p.p.p.s.f.s.    k.k.k.k.k.k.k.k.k.k.k.k.k.k.k.k.k.k.k.k.k.k.k.k.",
"k.k.k.k.k.k.k.k.k.k.k.k.k.k.k.k.k.k.  N f.s.p.p.p.p.p.p.p.p.p.p.p.p.p.p.p.p.f.    k.k.k.k.k.k.k.k.k.k.k.k.k.k.k.k.k.k.k.k.k.k.k.",
"k.k.k.k.k.k.k.k.k.k.k.k.k.k.k.k.k.  <.f.s.p.p.p.p.p.p.p.p.p.p.p.p.p.p.p.p.p.p.s.!   s k.k.k.k.k.k.k.k.k.k.k.k.k.k.k.k.k.k.k.k.k.",
"k.k.k.k.k.k.k.k.k.k.k.k.k.k.k.k.  B g.p.p.p.p.p.p.p.p.p.p.p.p.p.p.p.p.p.p.p.p.p.s.s.  c k.k.k.k.k.k.k.k.k.k.k.k.k.k.k.k.k.k.k.k.",
"k.k.k.k.k.k.k.k.k.k.k.k.k.k.k.    e.s.s.p.p.p.p.p.p.p.p.p.p.p.p.p.p.p.p.p.p.p.p.p.p.d.  z k.k.k.k.k.k.k.k.k.k.k.k.k.k.k.k.k.k.k.",
"k.k.k.k.k.k.k.k.k.k.k.k.k.k.k.    s.s.s.p.p.p.p.p.p.p.p.p.p.p.p.p.p.p.p.p.p.p.p.p.p.p.i.  d k.k.k.k.k.k.k.k.k.k.k.k.k.k.k.k.k.k.",
"k.k.k.k.k.k.k.k.k.k.k.k.k.k.  ..  f.p.p.p.p.p.p.p.p.p.p.p.p.p.p.p.p.p.p.p.p.p.p.p.p.p.p.d.  k.k.k.k.k.k.k.k.k.k.k.k.k.k.k.k.k.k.",
"k.k.k.k.k.k.k.k.k.k.k.k.k.k.  |   f.p.p.p.p.p.p.p.p.p.p.p.p.p.p.p.p.p.p.p.p.p.p.p.p.p.p.p.y.  k.k.k.k.k.k.k.k.k.k.k.k.k.k.k.k.k.",
"k.k.k.k.k.k.k.k.k.k.k.k.k.  J X.  f.s.p.p.p.p.p.p.s.f.f.p.p.p.p.p.p.p.p.p.p.p.p.p.p.p.p.p.s.. o k.k.k.k.k.k.k.k.k.k.k.k.k.k.k.k.",
"k.k.k.k.k.k.k.k.k.k.k.k.k.  ;.=.  u.s.p.p.p.p.p.f.      / d.p.p.p.p.p.p.p.p.p.p.p.p.p.p.p.p.f.  k.k.k.k.k.k.k.k.k.k.k.k.k.k.k.k.",
"k.k.k.k.k.k.k.k.k.k.k.k.k.  :.;.. @ f.s.p.p.p.g.  , < <     g.p.p.p.p.p.p.p.p.p.p.p.p.p.p.d.g.. o k.k.k.k.k.k.k.k.k.k.k.k.k.k.k.",
"k.k.k.k.k.k.k.k.k.k.k.k.  L ;.-.;.  u q.s.p.g.  # 0 e t 3 2     f.d.p.p.p.p.p.p.p.p.p.p.t.        k.k.k.k.k.k.k.k.k.k.k.k.k.k.k.",
"k.k.k.k.k.k.k.k.k.k.k.k.  *.-.-.-.;.    k &.& o & # - q t q < o   q.f.g.d.s.p.d.p.s.f.    r < 3   k.k.k.k.k.k.k.k.k.k.k.k.k.k.k.",
"k.k.k.k.k.k.k.k.k.k.k.k.  -.-.-.-.-.-.]         % @     . e t 0 <     ~ 2.r.d.8.p.e.  . < 0 e e   k.k.k.k.k.k.k.k.k.k.k.k.k.k.k.",
"k.k.k.k.k.k.k.k.k.k.k.k.  ;.-.-.-.-.-.X.    % d.d.h.r.$.    - q t q X   9 $.h.O.p O > 0 t t q 0   . k.k.k.k.k.k.k.k.k.k.k.k.k.k.",
"k.k.k.k.k.k.k.k.k.k.k.k.  :.-.-.-.-.;.#   f.s.i.2.        N     3 q <   % 8.f.,.  3 t e <       . . k.k.k.k.k.k.k.k.k.k.k.k.k.k.",
"k.k.k.k.k.k.k.k.k.k.k.  X :.;.-.-.-.=.  i.p.s.0.  $.<.$.B     i   o   & ,.d.d.1.  1 <     n r.h.. $ k.k.k.k.k.k.k.k.k.k.k.k.k.k.",
"k.k.k.k.k.k.k.k.k.k.k.  * j   * ;.-.X.  f.s.p.s.t.d.g.d.i 6 ~ 5.%.@ ^ ,.f.p.d.7.C           5 r.. O k.k.k.k.k.k.k.k.k.k.k.k.k.k.",
"k.k.k.k.k.k.k.k.k.k.k.  X   O..   ;. .  f.s.p.p.u.p.u.X     ; m f.d.p.s.p.p.f.,.M ! $.3.7.7.  ,..   k.k.k.k.k.k.k.k.k.k.k.k.k.k.",
"k.k.k.k.k.k.k.k.k.k.k.k.  r.g.g.b * |   f.p.p.p.+.            : r.s.p.p.s.d.1.B ,./     @ g.d.g.. k.k.k.k.k.k.k.k.k.k.k.k.k.k.k.",
"k.k.k.k.k.k.k.k.k.k.k.  u f.p.p.a.  {   g.a.p.p.s.p.5.2.%.B C c 5.d.p.p.p.s.X 0.^ =     & t.p.g.  k.k.k.k.k.k.k.k.k.k.k.k.k.k.k.",
"k.k.k.k.k.k.k.k.k.k.k.  g.p.p.p.s.  }   d.s.p.p.p.p.s.s.f.f.f.s.p.s.p.p.s.8.  t.O         . p.d.  k.k.k.k.k.k.k.k.k.k.k.k.k.k.k.",
"k.k.k.k.k.k.k.k.k.k.k.  f.p.p.p.d.  ..  d.s.s.p.p.p.p.p.p.p.p.p.p.p.p.p.d.8.  s.5 o <.C x t.p.i.  k.k.k.k.k.k.k.k.k.k.k.k.k.k.k.",
"k.k.k.k.k.k.k.k.k.k.  B s.p.p.p.f.  X.  V p.p.p.p.p.p.p.p.p.p.p.p.p.p.p.s.5.  f.d.d.d.s.d.s.d.8.  k.k.k.k.k.k.k.k.k.k.k.k.k.k.k.",
"k.k.k.k.k.k.k.k.k.k.  u.s.p.p.p.f.  X.L   d.p.p.p.p.p.p.p.p.p.p.p.p.p.p.p.r.. d.p.p.p.p.p.p.d.2.  k.k.k.k.k.k.k.k.k.k.k.k.k.k.k.",
"k.k.k.k.k.k.k.k.k.k.  d.p.p.p.p.f.  *...  f.p.p.p.p.p.p.s.p.p.p.p.p.p.p.s.8.  d.p.p.p.p.p.s.f.#.  k.k.k.k.k.k.k.k.k.k.k.k.k.k.k.",
"k.k.k.k.k.k.k.k.k.k.  d.p.p.p.p.f.  | ;.4 . s.p.p.p.p.p.p.p.p.p.p.p.p.p.p.i.  p.p.p.p.p.p.p.f.B   k.k.k.k.k.k.k.k.k.k.k.k.k.k.k.",
"k.k.k.k.k.k.k.k.k.k.  6.p.p.p.p.d.  | :.|   f.p.p.p.p.p.p.p.p.p.p.p.p.p.p.s.  i.p.p.p.p.p.p.f.. k.k.k.k.k.k.k.k.k.k.k.k.k.k.k.k.",
"k.k.k.k.k.k.k.k.k.k.. O d.p.p.p.d.  [ ;.-.w   s.p.p.p.p.p.p.p.p.p.p.p.p.p.f.  q.s.p.p.p.p.p.f.  k.k.k.k.k.k.k.k.k.k.k.k.k.k.k.k.",
"k.k.k.k.k.k.k.k.k.k.k.  f.p.p.p.f.  P ;.;. .  s p.p.p.p.p.p.p.p.p.p.p.p.p.f.  / d.p.p.p.p.p.f.  k.k.k.k.k.k.k.k.k.k.k.k.k.k.k.k.",
"k.k.k.k.k.k.k.k.k.k.k.o   d.p.p.d.  I ;.-.;.K   f.p.p.p.p.p.p.p.p.p.p.p.p.s.O.  f.p.p.p.p.s.p.  k.k.k.k.k.k.k.k.k.k.k.k.k.k.k.k.",
"k.k.k.k.k.k.k.k.k.k.k.k.  s f.p.d.  L ;.-.-.X.g   p.p.p.p.p.p.p.p.p.p.p.p.p.i.  s.p.p.p.p.f.Q   k.k.k.k.k.k.k.k.k.k.k.k.k.k.k.k.",
"k.k.k.k.k.k.k.k.k.k.k.k.k.    f.g.  l ;.-.-.;.+   d.s.p.p.p.p.p.p.p.p.p.p.p.d.  t.p.p.p.p.f.  . k.k.k.k.k.k.k.k.k.k.k.k.k.k.k.k.",
"k.k.k.k.k.k.k.k.k.k.k.k.k.k.    o & < ;.-.-.'   8 i.s.p.p.p.p.p.p.p.p.p.p.p.f.& @ d.p.p.s.7.. k.k.k.k.k.k.k.k.k.k.k.k.k.k.k.k.k.",
"k.k.k.k.k.k.k.k.k.k.k.k.k.k.k.k.      :.-.-.    O.p.p.p.p.p.p.p.p.p.p.p.p.p.d.3.  f.p.p.d.y o k.k.k.k.k.k.k.k.k.k.k.k.k.k.k.k.k.",
"k.k.k.k.k.k.k.k.k.k.k.k.k.k.k.k.k.k.  :.-.  # $.h.p.p.p.p.p.p.p.p.p.p.p.p.p.p.r.  d.p.p.a.4   k.k.k.k.k.k.k.k.k.k.k.k.k.k.k.k.k.",
"k.k.k.k.k.k.k.k.k.k.k.k.k.k.k.k.k.k.  ;.y   $.r.q.p.p.p.p.p.p.p.p.p.p.d.f.f.d.f.  r.p.p.h j   k.k.k.k.k.k.k.k.k.k.k.k.k.k.k.k.k.",
"k.k.k.k.k.k.k.k.k.k.k.k.k.k.k.k.k.k.  -.. #.1.  0.d.p.p.p.p.p.p.p.p.p.  . .     . r.p.p.u o.  k.k.k.k.k.k.k.k.k.k.k.k.k.k.k.k.k.",
"k.k.k.k.k.k.k.k.k.k.k.k.k.k.k.k.k.k.    +.C   y.y.p.p.p.p.p.p.p.p.p.s.7.B B ,.2.5.p.p.p.c @ o k.k.k.k.k.k.k.k.k.k.k.k.k.k.k.k.k.",
"k.k.k.k.k.k.k.k.k.k.k.k.k.k.k.k.k.k.  f +.  p.; M f.p.p.p.p.p.p.p.p.p.d.f.d.s.f.d.p.p.p.p.. d k.k.k.k.k.k.k.k.k.k.k.k.k.k.k.k.k.",
"k.k.k.k.k.k.k.k.k.k.k.k.k.k.k.k.k.k.. ;   u.;   f.p.p.p.p.p.p.p.p.s.d.i.i.s.s.s.s.p.p.d.y.  Q k.k.k.k.k.k.k.k.k.k.k.k.k.k.k.k.k.",
"k.k.k.k.k.k.k.k.k.k.k.k.k.k.k.k.k.k.%   8.%   q.! d.p.p.p.p.p.p.w.@.S S S D S 4.s.p.p.p.d.  i k.k.k.k.k.k.k.k.k.k.k.k.k.k.k.k.k.",
"k.k.k.k.k.k.k.k.k.k.k.k.k.k.k.k.k.k.k.  6   8.O   s.p.p.p.p.p.>.A A Y _ ) H F S p.p.p.p.p.  ; k.k.k.k.k.k.k.k.k.k.k.k.k.k.k.k.k.",
"k.k.k.k.k.k.k.k.k.k.k.k.k.k.k.k.k.k.k.    8.6   s.p.p.p.p.p.p.E H A A A S S S A q.d.p.p.p.  i k.k.k.k.k.k.k.k.k.k.k.k.k.k.k.k.k.",
"k.k.k.k.k.k.k.k.k.k.k.k.k.k.k.k.k.k.k.  r.d   d.p.p.p.p.p.p.p.u.S Y S D W G S F ( s.p.p.f.  O k.k.k.k.k.k.k.k.k.k.k.k.k.k.k.k.k.",
"k.k.k.k.k.k.k.k.k.k.k.k.k.k.k.k.k.k.k.  Q   s.p.p.p.p.p.p.p.p.s.F H T D S S H D R p.p.p.p.  d k.k.k.k.k.k.k.k.k.k.k.k.k.k.k.k.k.",
"k.k.k.k.k.k.k.k.k.k.k.k.k.k.k.k.k.k.k.    f.p.p.p.p.p.p.p.p.p.p.d.S ) ` ) ) _ S y.p.p.p.p.  u k.k.k.k.k.k.k.k.k.k.k.k.k.k.k.k.k.",
"k.k.k.k.k.k.k.k.k.k.k.k.k.k.k.k.k.k.k.k.  O s.p.p.p.p.p.p.p.p.p.p.a.S U ` ` S D d.p.p.p.f.  k.k.k.k.k.k.k.k.k.k.k.k.k.k.k.k.k.k.",
"k.k.k.k.k.k.k.k.k.k.k.k.k.k.k.k.k.k.k.k.k.  O d.p.p.p.p.p.p.p.p.p.p.9.S S S S a.p.p.p.s.Q   k.k.k.k.k.k.k.k.k.k.k.k.k.k.k.k.k.k.",
"k.k.k.k.k.k.k.k.k.k.k.k.k.k.k.k.k.k.k.k.k.k.  $.f.p.p.p.p.p.p.p.p.p.p.d.d.d.d.s.p.p.p.b   k.k.k.k.k.k.k.k.k.k.k.k.k.k.k.k.k.k.k.",
"k.k.k.k.k.k.k.k.k.k.k.k.k.k.k.k.k.k.k.k.k.k.k.  5.f.p.p.p.p.p.p.p.p.p.p.p.p.p.p.p.p.O.  k.k.k.k.k.k.k.k.k.k.k.k.k.k.k.k.k.k.k.k.",
"k.k.k.k.k.k.k.k.k.k.k.k.k.k.k.k.k.k.k.k.k.k.k.k.  $.g.p.p.p.p.p.p.p.p.p.p.p.p.p.p.f.  k.k.k.k.k.k.k.k.k.k.k.k.k.k.k.k.k.k.k.k.k.",
"k.k.k.k.k.k.k.k.k.k.k.k.k.k.k.k.k.k.k.k.k.k.k.k.k.  ! d.d.p.p.p.p.p.p.p.p.p.p.p.d.  & k.k.k.k.k.k.k.k.k.k.k.k.k.k.k.k.k.k.k.k.k.",
"k.k.k.k.k.k.k.k.k.k.k.k.k.k.k.k.k.k.k.k.k.k.k.k.k.k.  M p.s.p.p.p.p.d.% O.p.p.p.s.  k.k.k.k.k.k.k.k.k.k.k.k.k.k.k.k.k.k.k.k.k.k.",
"k.k.k.k.k.k.k.k.k.k.k.k.k.k.k.k.k.k.k.k.k.k.k.k.k.k.k.  s f.p.p.p.p.d.3.  d.p.p.s.  k.k.k.k.k.k.k.k.k.k.k.k.k.k.k.k.k.k.k.k.k.k.",
"k.k.k.k.k.k.k.k.k.k.k.k.k.k.k.k.k.k.k.k.k.k.k.k.k.k.k.k.    g.f.d.f.g.  % j.d.d.,.  k.k.k.k.k.k.k.k.k.k.k.k.k.k.k.k.k.k.k.k.k.k.",
"k.k.k.k.k.k.k.k.k.k.k.k.k.k.k.k.k.k.k.k.k.k.k.k.k.k.k.k.k.O   X $       s   c X   k.k.k.k.k.k.k.k.k.k.k.k.k.k.k.k.k.k.k.k.k.k.k.",
"k.k.k.k.k.k.k.k.k.k.k.k.k.k.k.k.k.k.k.k.k.k.k.k.k.k.k.k.k.k.k.k.  k.k.k.k.k.  o k.k.k.k.k.k.k.k.k.k.k.k.k.k.k.k.k.k.k.k.k.k.k.k.",
"k.k.k.k.k.k.k.k.k.k.k.k.k.k.k.k.k.k.k.k.k.k.k.k.k.k.k.k.k.k.k.k.k.k.k.k.k.k.k.k.k.k.k.k.k.k.k.k.k.k.k.k.k.k.k.k.k.k.k.k.k.k.k.k.",
"k.k.k.k.k.k.k.k.k.k.k.k.k.k.k.k.k.k.k.k.k.k.k.k.k.k.k.k.k.k.k.k.k.k.k.k.k.k.k.k.k.k.k.k.k.k.k.k.k.k.k.k.k.k.k.k.k.k.k.k.k.k.k.k."
};
