/* XPM */
static char *result[] = {
/* columns rows colors chars-per-pixel */
"64 64 154 2 ",
"   c #000000",
".  c #0C0B0B",
"X  c #0B0907",
"o  c #110E0A",
"O  c #12100E",
"+  c #0D0C11",
"@  c #1B1817",
"#  c #14121B",
"$  c #1C191C",
"%  c #171518",
"&  c #211E1C",
"*  c #231D15",
"=  c #24211F",
"-  c #2B241C",
";  c #30271D",
":  c #332A1F",
">  c #171621",
",  c #1D1B25",
"<  c #1F1D2D",
"1  c #211E24",
"2  c #201F2E",
"3  c #2B2624",
"4  c #23202C",
"5  c #2D2B2C",
"6  c #342C23",
"7  c #382E23",
"8  c #312D2B",
"9  c #3C3226",
"0  c #37322F",
"q  c #252334",
"w  c #282537",
"e  c #2F2B32",
"r  c #29273A",
"t  c #2A283C",
"y  c #332F35",
"u  c #342F39",
"i  c #343033",
"p  c #3B3532",
"a  c #3F3936",
"s  c #36313A",
"d  c #3A353C",
"f  c #463E37",
"g  c #423C3C",
"h  c #743D36",
"j  c #773E38",
"k  c #49423F",
"l  c #47413C",
"z  c #7B423B",
"x  c #2F2C41",
"c  c #302D43",
"v  c #3D3741",
"b  c #3F3943",
"n  c #423C44",
"m  c #453F49",
"M  c #464045",
"N  c #4C4543",
"B  c #554C47",
"V  c #554D4A",
"C  c #5B524D",
"Z  c #534E52",
"A  c #5C5352",
"S  c #635956",
"D  c #655B5A",
"F  c #695F5C",
"G  c #6C625D",
"H  c #655F62",
"J  c #6B6364",
"K  c #6E686B",
"L  c #656062",
"P  c #786C67",
"I  c #736D6F",
"U  c #726762",
"Y  c #7E726C",
"T  c #746E71",
"R  c #797276",
"E  c #80453E",
"W  c #844740",
"Q  c #8A4C45",
"!  c #874A43",
"~  c #8E514A",
"^  c #92524A",
"/  c #99574F",
"(  c #9A5750",
")  c #955A52",
"_  c #9D5B54",
"`  c #A3625A",
"'  c #A8625A",
"]  c #81746F",
"[  c #857872",
"{  c #897B75",
"}  c #8B7D78",
"|  c #AD6965",
" . c #B06B68",
".. c #B6726F",
"X. c #AD7D74",
"o. c #BC7573",
"O. c #BD7876",
"+. c #C07977",
"@. c #C47B79",
"#. c #94857E",
"$. c #C8807E",
"%. c #867F83",
"&. c #868083",
"*. c #9B8B85",
"=. c #9F8F89",
"-. c #968E91",
";. c #989094",
":. c #9E9699",
">. c #A08F88",
",. c #A3938B",
"<. c #AC9B93",
"1. c #B09F96",
"2. c #B3A199",
"3. c #B9A79E",
"4. c #ABA2A6",
"5. c #AEA5A9",
"6. c #BDAAA1",
"7. c #B0A7AB",
"8. c #B5ABAF",
"9. c #B7AEB2",
"0. c #BCB3B7",
"q. c #C3B0A6",
"w. c #C6B2A9",
"e. c #C9B5AC",
"r. c #CCB8AF",
"t. c #CEBAB0",
"y. c #C3BABE",
"u. c #D2BDB3",
"i. c #D6C1B7",
"p. c #DBC5BB",
"a. c #DFC9BE",
"s. c #CABFC4",
"d. c #CEC3C8",
"f. c #D4C9CE",
"g. c #D1C6CB",
"h. c #DACFD3",
"j. c #D6CBD0",
"k. c #DED2D7",
"l. c #DFD4D9",
"z. c #E4CDC2",
"x. c #E7D0C6",
"c. c #E9D2C7",
"v. c #EAD3C8",
"b. c #EFD8CD",
"n. c #F1DACE",
"m. c #E4D9DD",
"M. c #F4DCD1",
"N. c #EBDFE4",
"B. c #EEE1E6",
"V. c #F2E6EB",
"C. c #F5E9EE",
"Z. c #F9EDF2",
"A. c #FFF4F9",
"S. c None",
/* pixels */
"S.S.S.S.S.S.S.S.S.S.S.S.S.S.S.S.S.S.S.S.S.S.S.S.S.S.S.S.S.S.S.S.S.S.S.S.S.S.S.S.S.S.S.S.S.S.S.S.S.S.S.S.S.S.S.S.S.S.S.S.S.S.S.S.",
"S.S.S.S.S.S.S.S.S.S.S.S.S.S.S.S.S.S.S.S.S.S.S.S.S.S.S.S.S.S.S.S.S.S.S.S.S.S.S.S.S.S.S.S.S.S.S.S.S.S.S.S.S.S.S.S.S.S.S.S.S.S.S.S.",
"S.S.S.S.S.S.S.S.S.S.S.S.S.S.S.S.S.S.S.S.S.S.S.S.S.S.S.S.S.S.S.S.S.S.S.S.S.S.S.S.S.S.S.S.S.S.S.S.S.S.S.S.S.S.S.S.S.S.S.S.S.S.S.S.",
"S.S.S.S.S.S.S.S.S.S.S.S.S.S.S.S.S.S.S.S.S.S.S.S.S.S.    S.S.S.S.S.S.S.S.S.S.S.S.S.S.S.S.S.S.S.S.S.S.S.S.S.S.S.S.S.S.S.S.S.S.S.S.",
"S.S.S.S.S.S.S.S.S.S.S.S.S.S.S.S.S.S.S.S.S.S.S.S.S.  5.    S.S.S.S.S.S.S.S.S.S.S.S.S.S.S.S.S.S.S.S.S.S.S.S.S.S.S.S.S.S.S.S.S.S.S.",
"S.S.S.S.S.S.S.S.S.S.S.S.S.S.S.S.S.S.S.S.S.S.S.S.S.  Z.C.  i S.      S.S.S.S.S.S.S.S.  S.S.S.S.S.S.S.S.S.S.S.S.S.S.S.S.S.S.S.S.S.",
"S.S.S.S.S.S.S.S.S.S.S.S.S.S.S.S.S.S.S.S.S.      S.  C.N.V.  5   T   S.S.S.S.S.S.    X       S.S.S.S.S.S.S.S.S.S.S.S.S.S.S.S.S.S.",
"S.S.S.S.S.S.S.S.S.S.S.S.S.S.S.S.S.S.S.S.S.  8.&.    C.N.B.L   8 4.A.        S.  q x x c r X   S.S.S.S.S.S.S.S.S.S.S.S.S.S.S.S.S.",
"S.S.S.S.S.S.S.S.S.S.S.S.S.S.S.S.S.S.S.S.S.  k.Z.Z I V.B.B.B.5.j.l.B.X   y.    c c c c c c c t     S.S.S.S.S.S.S.S.S.S.S.S.S.S.S.",
"S.S.S.S.S.S.S.S.S.S.S.S.S.S.S.S.S.S.S.S.S.  k.B.V.N.N.B.h.g.C.m.4.Z.h.-.C.  s r c c c c c c c c     S.S.S.S.S.S.S.S.S.S.S.S.S.S.",
"S.S.S.S.S.S.S.S.S.S.S.S.S.S.S.S.S.S.X       j.B.k.N.V.C.f.5.0.:.I -.%.R 5.9.  q c c c c c c c c c     S.S.S.S.S.S.S.S.S.S.S.S.S.",
"S.S.S.S.S.S.S.S.S.S.S.S.              5 M X f.Z.:.9.7.R Z n y u y s s +         2 c c c c c c c c c     S.S.S.S.S.S.S.S.S.S.S.S.",
"S.S.S.S.S.S.S.S.S.S.    # c c c c c # 1 B.d.B.s.J s , $ , y d n m v     *.=.[ N     2 c c c c c c c c     S.S.S.S.S.S.S.S.S.S.S.",
"S.S.S.S.S.S.S.S.S.    c c c c c c c ,   y.y.;.e %     X         y   #.M.n.n.M.b.w.V     c c c c c c c w   S.S.S.S.S.S.S.S.S.S.S.",
"S.S.S.S.S.S.S.S.X   c c c c c c c c 2   B.L 1     v.n.n.n.M.v.<.. e.n.c.v.v.v.c.b.v.J     c c c c c c c #   S.S.S.S.S.S.S.S.S.S.",
"S.S.S.S.S.S.S.    c c c c c c c c c t   K .   <.n.v.v.v.v.v.v.v.v.v.v.v.v.v.v.v.v.v.b.F   + c c c c c c w   S.S.S.S.S.S.S.S.S.S.",
"S.S.S.S.S.S.S.  c c c c c c c x c c x       n.v.v.c.v.v.c.v.v.v.v.v.v.v.v.v.v.v.v.v.v.z.g   c c c c c c c   S.S.S.S.S.S.S.S.S.S.",
"S.S.S.S.S.S.  + c c c c c x c c c c w X   M.v.v.v.v.v.v.v.v.v.v.v.v.c.v.v.c.v.v.v.v.v.M.<.  > c c c c x c #   S.S.S.S.S.S.S.S.S.",
"S.S.S.S.S.S.  c c c c c c c x c c t ,   u.b.v.v.c.v.v.c.v.v.v.c.c.v.c.v.v.c.v.c.v.v.v.v.b.p   c c x c c c r   S.S.S.S.S.S.S.S.S.",
"S.S.S.S.S.  x c c x c c c c c c c q   *.M.v.v.v.v.v.v.v.c.v.v.v.v.v.v.v.v.v.v.v.v.v.M.z.e.P   c c c c c c x   S.S.S.S.S.S.S.S.S.",
"S.S.S.S.S.  c c c c c c c c c c x   X x.v.v.v.v.v.v.v.v.v.c.v.v.v.v.v.v.v.v.v.v.b.v.          c c c c c x c   S.S.S.S.S.S.S.S.S.",
"S.S.S.S.  # c c c c c x c c c c t   *.M.v.v.v.v.n.v.v.v.v.v.v.v.c.v.v.x.c.c.v.M.*.  X 7 9 -   x x c c c c c   S.S.S.S.S.S.S.S.S.",
"S.S.S.S.  c c c c x c x c c c c #   u.b.v.v.b.q.      . p.n.b.v.v.b.v.v.c.b.z.O   6 9 9 *     2 c c c c c c   S.S.S.S.S.S.S.S.S.",
"S.S.S.S.  c c c c c c c c c c c   N c.v.v.v.c.  - 6 f p     C p.f.p.p.t.z.3.3   9 9 ;     *.X # c c c x c c   S.S.S.S.S.S.S.S.S.",
"S.S.S.S.  c c c c c c c c c c c , S b.v.c.n.  O f 9 7 - - ;         #.<.v.[ 6 7 9 o   F b.M.3   c c c c c c   S.S.S.S.S.S.S.S.S.",
"S.S.S.  + c c c c c c c c c x x , N c.v.v.p.              9 9 9 7 o ] u.n.8 . o           n.p   c c c c c c   S.S.S.S.S.S.S.S.S.",
"S.S.S.  q c c x c c c c c x c x 1 y 1.M.M.    G 6.,.[ B X     o :   ] b.n.  a .   2.a.v.v.v.i   c c c c c c   S.S.S.S.S.S.S.S.S.",
"S.S.S.  r c c c c x c c c c c x 1 b n t.p.& r.M.6.          G     X w.n.v.  V ,.[     q.a.t.M   c c c c c c   S.S.S.S.S.S.S.S.S.",
"S.S.S.  q c c c c c c x c c c x 1 m v y ,.c.n.*.  ,.1.2.=.  U ,.z.n.v.v.v.  { <.X     3     M   c c c c c t   S.S.S.S.S.S.S.S.S.",
"S.S.S.  > c c c c x c c c c c x 4 n m u } M.z.u.z.n.z.z.    X i.v.v.v.v.n.  1.P N     X p.8 n   c x c c c     S.S.S.S.S.S.S.S.S.",
"S.S.S.S.  c c c c c c c c c c c 4 + % y } n.v.c.p           F u.b.v.v.v.,.  p.N     c.8 c.q.A   c c c x c   S.S.S.S.S.S.S.S.S.S.",
"S.S.S.S.  c c c c c x c c x c     @ .   S M.v.v.X q.2.  n.= r.v.v.v.c.v.p & z.c.v.  v.v.c.n.H   c c c c     S.S.S.S.S.S.S.S.S.S.",
"S.S.S.S.  > c c c c c x c c t   S b.M.<.#.n.c.v.v.v.#.p.c.v.c.v.v.v.v.v.z.  r.v.v.v.c.v.c.n.D   c c c q   S.S.S.S.S.S.S.S.S.S.S.",
"S.S.S.S.S.  c x c c c c c x   q q.n.v.b.x.v.v.v.v.v.v.v.v.v.v.v.c.v.c.v.v.  ,.n.v.v.v.v.v.n.U   c c 2   S.S.S.S.S.S.S.S.S.S.S.S.",
"S.S.S.S.S.  . x x c c c c c   s p.c.v.v.v.v.c.v.v.v.c.v.v.v.c.v.v.v.c.v.v.  V v.v.v.v.v.v.n.}   r     S.S.S.S.S.S.S.S.S.S.S.S.S.",
"S.S.S.S.S.S.  r c c c c x c   n z.v.v.v.v.v.v.v.v.v.v.v.v.c.v.v.v.v.v.v.v.n.  u.v.v.v.v.v.n.>.    S.S.S.S.S.S.S.S.S.S.S.S.S.S.S.",
"S.S.S.S.S.S.S.  q c c c c c   n x.v.v.v.c.v.v.v.v.v.v.v.c.v.v.v.v.v.c.v.v.v.  C n.v.v.v.v.b.3.  S.S.S.S.S.S.S.S.S.S.S.S.S.S.S.S.",
"S.S.S.S.S.S.S.S.    w c c c   d x.v.c.v.v.v.v.c.v.v.v.c.v.v.v.c.c.v.v.v.v.v.n.  a.v.v.v.v.b.t.  S.S.S.S.S.S.S.S.S.S.S.S.S.S.S.S.",
"S.S.S.S.S.S.S.S.S.S.          a x.v.v.v.c.v.c.v.c.v.v.v.c.v.c.v.v.v.v.v.v.v.n.. . n.v.v.v.v.a.    S.S.S.S.S.S.S.S.S.S.S.S.S.S.S.",
"S.S.S.S.S.S.S.S.S.S.S.S.S.S.  X p.v.c.v.v.v.v.v.v.v.v.c.v.v.v.v.v.v.c.v.v.c.v.c.  p.v.v.v.v.n.&   S.S.S.S.S.S.S.S.S.S.S.S.S.S.S.",
"S.S.S.S.S.S.S.S.S.S.S.S.S.S.S.  r.b.v.v.v.v.v.v.v.v.v.v.v.v.c.v.c.v.v.c.v.v.c.n.*.  n.v.v.v.n.A   S.S.S.S.S.S.S.S.S.S.S.S.S.S.S.",
"S.S.S.S.S.S.S.S.S.S.S.S.S.S.S.  ,.n.v.v.v.v.v.v.c.v.v.c.v.c.v.v.v.v.v.v.v.v.v.v.p.  N c.v.v.M.[   S.S.S.S.S.S.S.S.S.S.S.S.S.S.S.",
"S.S.S.S.S.S.S.S.S.S.S.S.S.S.S.S.  M.v.v.v.v.v.v.v.v.v.v.v.v.v.v.v.v.v.v.v.v.v.v.M.,.  n.v.v.n.#.  S.S.S.S.S.S.S.S.S.S.S.S.S.S.S.",
"S.S.S.S.S.S.S.S.S.S.S.S.S.S.S.S.    M.v.v.v.v.x.v.v.v.v.v.c.v.c.c.v.v.c.v.v.v.p.3.    v.v.v.n.>.  S.S.S.S.S.S.S.S.S.S.S.S.S.S.S.",
"S.S.S.S.S.S.S.S.S.S.S.S.S.S.S.S.S.    @ a.n.} = v.v.v.v.v.c.v.v.v.v.v.v.v.z.      B r.v.v.v.n.2.  S.S.S.S.S.S.S.S.S.S.S.S.S.S.S.",
"S.S.S.S.S.S.S.S.S.S.S.S.S.S.S.S.S.S.S..         0 n.v.v.v.v.v.c.v.v.v.v.v.v.j.M.v.c.n.v.v.v.n.3.  S.S.S.S.S.S.S.S.S.S.S.S.S.S.S.",
"S.S.S.S.S.S.S.S.S.S.S.S.S.S.S.S.S.S.S.S.S.S.S.S.  M.v.v.v.v.v.v.c.v.v.v.b.` ~ Q ! / c.v.v.v.n.2.  S.S.S.S.S.S.S.S.S.S.S.S.S.S.S.",
"S.S.S.S.S.S.S.S.S.S.S.S.S.S.S.S.S.S.S.S.S.S.S.S.  f.v.v.v.c.v.v.v.v.c.v.` Q O. .o.! X.v.v.v.n.{   S.S.S.S.S.S.S.S.S.S.S.S.S.S.S.",
"S.S.S.S.S.S.S.S.S.S.S.S.S.S.S.S.S.S.S.S.S.S.S.S.  ,.n.v.c.v.v.c.v.v.v.v.~ | E h h _ Q v.v.v.M.@   S.S.S.S.S.S.S.S.S.S.S.S.S.S.S.",
"S.S.S.S.S.S.S.S.S.S.S.S.S.S.S.S.S.S.S.S.S.S.S.S.S.  M.v.v.v.v.v.v.v.v.v./ h h ` ` z z b.c.c.n.  S.S.S.S.S.S.S.S.S.S.S.S.S.S.S.S.",
"S.S.S.S.S.S.S.S.S.S.S.S.S.S.S.S.S.S.S.S.S.S.S.S.S.  n.v.v.v.v.v.v.v.v.v.E h z ~ z h / b.v.v.z.  S.S.S.S.S.S.S.S.S.S.S.S.S.S.S.S.",
"S.S.S.S.S.S.S.S.S.S.S.S.S.S.S.S.S.S.S.S.S.S.S.S.S.  x.v.c.v.v.c.v.v.v.v./ ` ( z z | / x.v.v.r.  S.S.S.S.S.S.S.S.S.S.S.S.S.S.S.S.",
"S.S.S.S.S.S.S.S.S.S.S.S.S.S.S.S.S.S.S.S.S.S.S.S.S.  ] v.v.v.v.v.v.c.v.v.X.! O...O.$.^ z.v.M.Y   S.S.S.S.S.S.S.S.S.S.S.S.S.S.S.S.",
"S.S.S.S.S.S.S.S.S.S.S.S.S.S.S.S.S.S.S.S.S.S.S.S.S.S.  M.v.v.v.v.v.v.v.v.b.Q ~ @.@.~ ) c.v.M.  S.S.S.S.S.S.S.S.S.S.S.S.S.S.S.S.S.",
"S.S.S.S.S.S.S.S.S.S.S.S.S.S.S.S.S.S.S.S.S.S.S.S.S.S.  v.n.c.v.v.v.v.v.v.c.b.( ! Q ^ c.v.v.3   S.S.S.S.S.S.S.S.S.S.S.S.S.S.S.S.S.",
"S.S.S.S.S.S.S.S.S.S.S.S.S.S.S.S.S.S.S.S.S.S.S.S.S.S.S.  G n.M.v.c.c.v.v.c.c.b.c.z.b.v.v.M..   S.S.S.S.S.S.S.S.S.S.S.S.S.S.S.S.S.",
"S.S.S.S.S.S.S.S.S.S.S.S.S.S.S.S.S.S.S.S.S.S.S.S.S.S.S.S.    >.f.M.v.v.v.v.c.v.v.v.b.v.v.M.N   S.S.S.S.S.S.S.S.S.S.S.S.S.S.S.S.S.",
"S.S.S.S.S.S.S.S.S.S.S.S.S.S.S.S.S.S.S.S.S.S.S.S.S.S.S.S.S.    . #.x.b.v.v.v.v.v.v.  z.v.M.S   S.S.S.S.S.S.S.S.S.S.S.S.S.S.S.S.S.",
"S.S.S.S.S.S.S.S.S.S.S.S.S.S.S.S.S.S.S.S.S.S.S.S.S.S.S.S.S.S.S.    l e.n.v.v.c.v.M.  p.M.x.  S.S.S.S.S.S.S.S.S.S.S.S.S.S.S.S.S.S.",
"S.S.S.S.S.S.S.S.S.S.S.S.S.S.S.S.S.S.S.S.S.S.S.S.S.S.S.S.S.S.S.S.S.    O p.M.M.M.          S.S.S.S.S.S.S.S.S.S.S.S.S.S.S.S.S.S.S.",
"S.S.S.S.S.S.S.S.S.S.S.S.S.S.S.S.S.S.S.S.S.S.S.S.S.S.S.S.S.S.S.S.S.S.S.X   Y U     S.S.S.S.S.S.S.S.S.S.S.S.S.S.S.S.S.S.S.S.S.S.S.",
"S.S.S.S.S.S.S.S.S.S.S.S.S.S.S.S.S.S.S.S.S.S.S.S.S.S.S.S.S.S.S.S.S.S.S.S.S.    S.S.S.S.S.S.S.S.S.S.S.S.S.S.S.S.S.S.S.S.S.S.S.S.S.",
"S.S.S.S.S.S.S.S.S.S.S.S.S.S.S.S.S.S.S.S.S.S.S.S.S.S.S.S.S.S.S.S.S.S.S.S.S.S.S.S.S.S.S.S.S.S.S.S.S.S.S.S.S.S.S.S.S.S.S.S.S.S.S.S.",
"S.S.S.S.S.S.S.S.S.S.S.S.S.S.S.S.S.S.S.S.S.S.S.S.S.S.S.S.S.S.S.S.S.S.S.S.S.S.S.S.S.S.S.S.S.S.S.S.S.S.S.S.S.S.S.S.S.S.S.S.S.S.S.S."
};
