/* XPM */
static char *result[] = {
/* columns rows colors chars-per-pixel */
"64 64 200 2 ",
"   c black",
".  c #010000",
"X  c #020000",
"o  c #020101",
"O  c #030101",
"+  c #040101",
"@  c #050101",
"#  c #060101",
"$  c #060202",
"%  c #070202",
"&  c #080202",
"*  c #090202",
"=  c #0A0202",
"-  c #0B0202",
";  c #0B0303",
":  c #0C0303",
">  c #0D0303",
",  c #0E0303",
"<  c #0F0303",
"1  c #0F0404",
"2  c #110404",
"3  c #120404",
"4  c #140505",
"5  c #150505",
"6  c #170505",
"7  c #1B0606",
"8  c #210808",
"9  c #220808",
"0  c #2E0A0A",
"q  c #2F0A0A",
"w  c #2F0B0B",
"e  c #300B0B",
"r  c #310B0B",
"t  c #300C0C",
"y  c #370D0D",
"u  c #3A0D0D",
"i  c #3B0E0E",
"p  c #410F0F",
"a  c #451010",
"s  c #4F1212",
"d  c #511313",
"f  c #5D1515",
"g  c #621616",
"h  c #631717",
"j  c #6B1919",
"k  c #6D1919",
"l  c #6F1A1A",
"z  c #811D1D",
"x  c #8A1F1F",
"c  c #882020",
"v  c #8C2020",
"b  c #8D2121",
"n  c #8E2121",
"m  c #942222",
"M  c #962222",
"N  c #962323",
"B  c #972323",
"V  c #9A2323",
"C  c #9B2424",
"Z  c #9C2525",
"A  c #A22525",
"S  c #A22626",
"D  c #A92727",
"F  c #B72A2A",
"G  c #B92B2B",
"H  c #BA2A2A",
"J  c #BD2B2B",
"K  c #BE2C2C",
"L  c #C12C2C",
"P  c #C32C2C",
"I  c #C42D2D",
"U  c #C52D2D",
"Y  c #C72D2D",
"T  c #C52E2E",
"R  c #C72E2E",
"E  c #C92E2E",
"W  c #CB2F2F",
"Q  c #CE2F2F",
"!  c #CF3030",
"~  c #D23030",
"^  c #D73232",
"/  c #D83232",
"(  c #D93232",
")  c #DA3232",
"_  c #DB3232",
"`  c #DC3232",
"'  c #DC3333",
"]  c #DD3333",
"[  c #DF3333",
"{  c #DF3434",
"}  c #E52F35",
"|  c #E53335",
" . c #E63335",
".. c #E03434",
"X. c #E13434",
"o. c #E23434",
"O. c #E33434",
"+. c #E53434",
"@. c #E43535",
"#. c #E53535",
"$. c #E63434",
"%. c #E63435",
"&. c #E63535",
"*. c #E73535",
"=. c #E63635",
"-. c #E73635",
";. c #E63735",
":. c #E63636",
">. c #E83535",
",. c #E83636",
"<. c #E93636",
"1. c #EA3636",
"2. c #EB3636",
"3. c #EC3636",
"4. c #ED3636",
"5. c #EC3737",
"6. c #ED3737",
"7. c #EE3737",
"8. c #EF3737",
"9. c #E63835",
"0. c #E73835",
"q. c #E63935",
"w. c #E73935",
"e. c #E73A35",
"r. c #E73C35",
"t. c #E73D35",
"y. c #E73C36",
"u. c #E73D36",
"i. c #E73E36",
"p. c #E73F36",
"a. c #E83F36",
"s. c #F03737",
"d. c #F13737",
"f. c #F13838",
"g. c #F23838",
"h. c #E84135",
"j. c #E84036",
"k. c #E84236",
"l. c #E84536",
"z. c #E84636",
"x. c #E94736",
"c. c #E94836",
"v. c #EA4B36",
"b. c #EA4E37",
"n. c #EA4F37",
"m. c #EA5037",
"M. c #EB5737",
"N. c #EB5A37",
"B. c #EC5B37",
"V. c #EB5B38",
"C. c #EC5A38",
"Z. c #ED5F38",
"A. c #ED6137",
"S. c #EE6738",
"D. c #EE6A38",
"F. c #EF6B38",
"G. c #EE6B39",
"H. c #EF6D38",
"J. c #F07239",
"K. c #F17739",
"L. c #F17839",
"P. c #F17E39",
"I. c #F27F3A",
"U. c #F2803A",
"Y. c #F2843A",
"T. c #F3843A",
"R. c #F3863A",
"E. c #F48C3A",
"W. c #F48F3B",
"Q. c #F5923B",
"!. c #F69B3B",
"~. c #F79C3B",
"^. c #F7A33C",
"/. c #F8A43C",
"(. c #F8A53C",
"). c #F8A83C",
"_. c #F9AD3D",
"`. c #F9AE3D",
"'. c #FAB53D",
"]. c #FAB53E",
"[. c #FBB83D",
"{. c #FCBE3E",
"}. c #FCBF3E",
"|. c #FCC03E",
" X c #FDC43E",
".X c #FDC63E",
"XX c #FDC73E",
"oX c #FDC83E",
"OX c #FDC93E",
"+X c #FECB3E",
"@X c #FDCD3E",
"#X c #FECC3F",
"$X c #FECE3F",
"%X c #FFCF3F",
"&X c #FFD03F",
"*X c #FFD13F",
"=X c #FFD23F",
"-X c #FFD33F",
";X c #FFD43F",
":X c None",
/* pixels */
":X:X:X:X:X:X:X:X:X:X:X:X:X:X:X:X:X:X:X:X:X:X:X:X:X:X:X:X:X:X:X:X:X:X:X:X:X:X:X:X:X:X:X:X:X:X:X:X:X:X:X:X:X:X:X:X:X:X:X:X:X:X:X:X",
":X:X:X:X:X:X:X:X:X:X:X:X:X:X:X:X:X:X:X:X:X:X:X:X:X:X:X:X:X:X:X:X:X:X:X:X:X:X:X:X:X:X:X:X:X:X:X:X:X:X:X:X:X:X:X:X:X:X:X:X:X:X:X:X",
":X:X:X:X:X:X:X:X:X:X:X:X:X:X:X:X:X:X:X:X:X:X:X:X:X:X:X:X:X:X:X:X:X:X:X:X:X:X:X:X:X:X:X:X:X:X:X:X:X:X:X:X:X:X:X:X:X:X:X:X:X:X:X:X",
":X:X:X:X:X:X:X:X:X:X:X:X:X:X:X:X:X:X:X:X:X:X:X:X:X:X:X:X:X:X:X:X:X:X:X:X:X:X:X:X:X:X:X:X:X:X:X:X:X:X:X:X:X:X:X:X:X:X:X:X:X:X:X:X",
":X:X:X:X:X:X:X:X:X:X:X:X:X:X:X:X:X:X:X:X:X:X:X:X:X:X:X:X:X:X:X:X:X:X:X:X:X:X:X:X:X:X:X:X:X:X:X:X:X:X:X:X:X:X:X:X:X:X:X:X:X:X:X:X",
":X:X:X:X:X:X:X:X:X:X:X:X:X:X:X:X:X:X:X:X:X:X:X:X:X:X:X:X:X:X:X:X:X:X:X:X:X:X:X:X:X:X:X:X:X:X:X:X:X:X:X:X:X:X:X:X:X:X:X:X:X:X:X:X",
":X:X:X:X:X:X:X:X:X:X:X:X:X:X:X:X:X:X:X:X:X:X:X:X:X:X:X:X:X:X:X:X:X:X:X:X:X:X:X:X:X:X:X:X:X:X:X:X:X:X:X:X:X:X:X:X:X:X:X:X:X:X:X:X",
":X:X:X:X:X:X:X:X:X:X:X:X:X:X:X:X:X:X:X:X:X:X:X:X:X:X:X:X:X:X:X:X:X:X:X:X:X:X:X:X:X:X:X:X:X:X:X:X:X:X:X:X:X:X:X:X:X:X:X:X:X:X:X:X",
":X:X:X:X:X:X:X:X:X:X:X:X:X:X:X:X:X:X:X:X:X:X:X:X:X:X:X:X:X:X:X:X:X:X:X:X:X:X:X:X:X:X:X:X:X:X:X:X:X:X:X:X:X:X:X:X:X:X:X:X:X:X:X:X",
":X:X:X:X:X:X:X:X:X:X:X:X:X:X:X:X:X:X        :X:X:X:X:X:X:X:X:X:X:X:X:X:X:X:X:X:X:X:X:X:X:X:X:X:X:X:X:X:X:X:X:X:X:X:X:X:X:X:X:X:X",
":X:X:X:X:X:X:X:X:X:X:X:X:X:X:X    O q p i 1 .     :X:X:X:X:X:X:X:X:X:X:X:X      X + @ @ O .   :X:X:X:X:X:X:X:X:X:X:X:X:X:X:X:X:X",
":X:X:X:X:X:X:X:X:X:X:X:X:X  O z L [ 1.1.1.X.E B w     :X:X:X:X:X:X:X:X:X  4 c K ] <.1.1.O.W V +   :X:X:X:X:X:X:X:X:X:X:X:X:X:X:X",
":X:X:X:X:X:X:X:X:X:X:X  . n o.s.2.*.&.&.&.*.1.8.1.J d     :X:X:X:X:X  + D @.s.2.>.&.&.&.*.1.8.1.D O   :X:X:X:X:X:X:X:X:X:X:X:X:X",
":X:X:X:X:X:X:X:X:X:X  O U f.>.&.&.&.&.&.&.&.&.&.&.3.8.A X   :X:X:X. * *.7.*.&.&.&.&.&.&.&.&.&.*.8.' 5   :X:X:X:X:X:X:X:X:X:X:X:X",
":X:X:X:X:X:X:X:X:X  + _ 4.&.&.&.&.&.&.&.&.&.&.&.&.&.&.s.R O   :XO : s.&.a.&.&.*.&.&.&.&.&.&.&.&.&.<.2.2   :X:X:X:X:X:X:X:X:X:X:X",
":X:X:X:X:X:X:X:X:X+ ' 2.&.&.&.&.&.&.&.&.&.&.&.&.&.&.&.&.7.! X :X= g.&.h.#X&.&.&.&.&.&.&.&.&.&.&.&.*.&.<.&   :X:X:X:X:X:X:X:X:X:X",
":X:X:X:X:X:X:X:XX m 3.&.&.&.&.&.&.&.&.&.&.&.&.&.&.&.&.&.&.f.0 @ 7.&.%.C.-X&.&.&.&.&.&.&.&.c.&.&.#.&.*.&.#.@ :X:X:X:X:X:X:X:X:X:X",
":X:X:X:X:X:X:X:X; 8.&.&.&.&.&.&.&.&.&.&.&.&.&.&.&.&.&.&.&.>.) Z *.&.&.].-XG.&.&.&.&.&.&.p.-X&.&.&.#.#.&.&.! X :X:X:X:X:X:X:X:X:X",
":X:X:X:X:X:X:X$ v &.&.&.&.&.&.&.&.&.&.&.&.&.&.&.&.&.&.&.&.&.>.*.&. .=.-X=XI.&.&.&.&.&.} M.-Xj.&.&.#.#.&.&.>.a   :X:X:X:X:X:X:X:X",
":X:X:X:X:X:X:X, 1.&.&.&.&.&.&.&.&.&.&.&.&.&.&.&.&.&.&.&.&.&.&.&. .%.L.-X*X!.%.&.&.&.&.} _.-XP.&.&.&.#.#.$.&.*.+ :X:X:X:X:X:X:X:X",
":X:X:X:X:X:X> u &.&.&.&.&.&.&.&.&.&.&.&.&.&.&.&.&.&.&.&.&.&.&.%.=.Y.-X-X-X-X'.&.&.&.&. .#X-X|.u.&.&.&.#.#.&.7.< :X:X:X:X:X:X:X:X",
":X:X:X:X:X:X: 6.&.&.&.&.&.&.&.&.&.&.&.&.&.&.&.&.&.&.&.&.&.&.9.F.@X=X-X-X-X-X=X{.V.&.&.&.-X-X&X^.&.&.&.&.#.#.&.F . :X:X:X:X:X:X:X",
":X:X:X:X:X:X< >.&.&.&.&.&.&.&.&.&.&.&.&.&.&.&.&.&.&.&.&.&.&.w.H.T.-X-X-X-X-X-Xb.l.i.&.[.-X-X-X+X9.&.&.&.#.#.&.5.@ :X:X:X:X:X:X:X",
":X:X:X:X:X< h &.&.&.&.&.&.&.&.&.&.&.&.&.&.&.&.&.&.&.&.&.&.&.&.&.&.Z..X-X-X-X|.=.&.&.Q.-X-X-X-X=X|.&.&.&.#.#.*.s.& :X:X:X:X:X:X:X",
":X:X:X:X:X% ` &.&.&.&.&.&.&.&.&.&.&.&.&.&.&.&.&.&.&.&.&.&.&.&.&.&.e.K.-X-X-Xv.&.&.&.oX-X-X-X-X-XoX=.&.&.#.#.&.7.- :X:X:X:X:X:X:X",
":X:X:X:X:X& s.&.&.&.&.&.&.&.&.&.&.&.&.&.&.&.&.&.&.&.&.&.&.&.&.&.&.&.S.-X-XN.;.&.&.`.-X-X-X-X-X-X-XOXr.&.#.#.*.&., :X:X:X:X:X:X:X",
":X:X:X:X:X& s.&.&.&.&.&.&.&.&.&.&.&.&.&.&.&.&.&.&.&.&.&.&.&.&.&.&.&.k.=X=Xy.&.| oX-X-X-X-X-X-X-X-X-X_.m.&.&.#.q.r   :X:X:X:X:X:X",
":X:X:X:X:X% 8.&.&.&.&.&.&.&.&.&.&.&.&.&.&.&.&.&.&.&.&.&.&.&.&.&.&.&.&.).~.0.u.=X=X-X-X-X-X-X-X-X-X-X-X-Xt.+.#.-.k   :X:X:X:X:X:X",
":X:X:X:X:X+ 2.&.&.&.&.&.&.&.&.&.&.&.&.&.&.&.&.&.&.&.&.&.&.&.&.&.&.&.&.D.E.&.&.&.R.%X-X=X;X-X-X-X-X-XA.n.-.$.#.&.j   :X:X:X:X:X:X",
":X:X:X:X:XX ( >.&.&.&.&.&.&.&.&.&.&.&.&.&.&.&.&.&.&.&.&.&.&.&.&.&.&.&.z.R.&.&.&.&.U.-X-X*X-X-X-X=X(.&.9.*.#.#.*.8   :X:X:X:X:X:X",
":X:X:X:X:X  D 6.&.&.&.&.&.&.&.&.&.&.&.&.&.&.&.&.&.&.&.&.&.&.&.&.&.&.&.&.i.&.&.&.&.&.x.=X-X-X-X-X*X=.&.&.+.#.#.#.. :X:X:X:X:X:X:X",
":X:X:X:X:X  l 8.&.&.&.&.&.&.&.&.&.&.&.&.&.&.&.&.&.&.&.&.&.&.&.&.&.&.&.&.&.&.&.&.&.&.&.XX=X-X=X-XD.&.&.8.#.#.#.C   :X:X:X:X:X:X:X",
":X:X:X:X:X  # ^ ,.&.&.&.&.&.&.&.&.&.&.&.&.&.&.&.&.&.&.&.&.&.&.&.&.&.&.&.&.&.&.&.&.&.&.W.$X-X-X}.&.&.&.*.&.#.*.3   :X:X:X:X:X:X:X",
":X:X:X:X:X:X  M 8.&.&.&.&.&.&.&.&.&.&.&.&.&.&.&.&.&.&.&.&.&.&.&.&.&.&.&.&.&.&.&.&.&.&.&.OX-X=XB.&.&.*.&.#.#.P . :X:X:X:X:X:X:X:X",
":X:X:X:X:X:X  + #.*.&.&.&.&.&.&.&.&.&.&.&.&.&.&.&.&.&.&.&.&.&.&.&.&.&.&.&.&.&.&.&.&.&.&./.-X=X=.&.&.&.#.:.*.t   :X:X:X:X:X:X:X:X",
":X:X:X:X:X:X:X  f s.&.&.&.&.&.&.&.&.&.&.&.&.&.&.&.&.&.&.&.&.&.&.&.&.&.&.&.&.&.&.&.&.&.&.&.=X X&.&.*.#.&.*.T . :X:X:X:X:X:X:X:X:X",
":X:X:X:X:X:X:X:Xo / 1.&.&.&.&.&.&.&.&.&.&.&.&.&.&.&.&.&.&.&.&.&.&.&.&.&.&.&.&.&.&.&.&.&.&.OXa.&.:.#.&.&.3.@ :X:X:X:X:X:X:X:X:X:X",
":X:X:X:X:X:X:X:X  # 2.*.&.&.&.&.&.&.&.&.&.&.&.&.&.&.&.&.&.&.&.&.&.&.&.&.&.&.&.&.&.&.&.&.&.J.&.&.#.*.&.s.=   :X:X:X:X:X:X:X:X:X:X",
":X:X:X:X:X:X:X:X:X  5 s.&.&.&.&.&.&.&.&.&.&.&.&.&.&.&.&.&.&.&.&.&.&.&.&.&.&.&.&.&.&.&.&.&.&.&.&.&.&.7.y . :X:X:X:X:X:X:X:X:X:X:X",
":X:X:X:X:X:X:X:X:X:X  g s.&.&.&.&.&.&.&.&.&.&.&.&.&.&.&.&.&.&.&.&.&.&.&.&.&.&.&.&.&.&.&.&.&.&.&.&.5.b X :X:X:X:X:X:X:X:X:X:X:X:X",
":X:X:X:X:X:X:X:X:X:X:X. x s.&.&.&.&.&.&.&.&.&.&.&.&.&.&.&.&.&.&.&.&.&.&.&.&.&.&.&.&.&.&.&.&.&.&.3./ O :X:X:X:X:X:X:X:X:X:X:X:X:X",
":X:X:X:X:X:X:X:X:X:X:X:XX d d.&.&.&.&.&.&.&.&.&.&.&.&.&.&.&.&.&.&.&.&.&.&.&.&.&.&.&.&.&.&.&.&.7.~ + :X:X:X:X:X:X:X:X:X:X:X:X:X:X",
":X:X:X:X:X:X:X:X:X:X:X:X:X. 6 s.*.&.&.&.&.&.&.&.&.&.&.&.&.&.&.&.&.&.&.&.&.&.&.&.&.&.&.&.&.&.8.H O :X:X:X:X:X:X:X:X:X:X:X:X:X:X:X",
":X:X:X:X:X:X:X:X:X:X:X:X:X:X  * 6.<.&.&.&.&.&.&.&.&.&.&.&.&.&.&.&.&.&.&.&.&.&.&.&.&.&.&.*.d.S X :X:X:X:X:X:X:X:X:X:X:X:X:X:X:X:X",
":X:X:X:X:X:X:X:X:X:X:X:X:X:X:X  % ..2.&.&.&.&.&.&.&.&.&.&.&.&.&.&.&.&.&.&.&.&.&.&.&.&.>.3.e . :X:X:X:X:X:X:X:X:X:X:X:X:X:X:X:X:X",
":X:X:X:X:X:X:X:X:X:X:X:X:X:X:X:X:X+ Q 4.&.&.&.&.&.&.&.&.&.&.&.&.&.&.&.&.&.&.&.&.&.&.<.>.<   :X:X:X:X:X:X:X:X:X:X:X:X:X:X:X:X:X:X",
":X:X:X:X:X:X:X:X:X:X:X:X:X:X:X:X:X:XO s s.&.&.&.&.&.&.&.&.&.&.&.&.&.&.&.&.&.&.&.&.3.{ #   :X:X:X:X:X:X:X:X:X:X:X:X:X:X:X:X:X:X:X",
":X:X:X:X:X:X:X:X:X:X:X:X:X:X:X:X:X:X:XX ; 8.>.&.&.&.&.&.&.&.&.&.&.&.&.&.&.&.&.&.s.I +   :X:X:X:X:X:X:X:X:X:X:X:X:X:X:X:X:X:X:X:X",
":X:X:X:X:X:X:X:X:X:X:X:X:X:X:X:X:X:X:X:X. & o.3.&.&.&.&.&.&.&.&.&.&.&.&.&.&.1.3.5 . :X:X:X:X:X:X:X:X:X:X:X:X:X:X:X:X:X:X:X:X:X:X",
":X:X:X:X:X:X:X:X:X:X:X:X:X:X:X:X:X:X:X:X:X:X+ p s.>.&.&.&.&.&.&.&.&.&.&.*.8.L #   :X:X:X:X:X:X:X:X:X:X:X:X:X:X:X:X:X:X:X:X:X:X:X",
":X:X:X:X:X:X:X:X:X:X:X:X:X:X:X:X:X:X:X:X:X:X:X. & X.6.&.&.&.&.&.&.&.&.1.<.= X :X:X:X:X:X:X:X:X:X:X:X:X:X:X:X:X:X:X:X:X:X:X:X:X:X",
":X:X:X:X:X:X:X:X:X:X:X:X:X:X:X:X:X:X:X:X:X:X:X:X  + N s.*.&.&.&.&.&.8.9 # :X:X:X:X:X:X:X:X:X:X:X:X:X:X:X:X:X:X:X:X:X:X:X:X:X:X:X",
":X:X:X:X:X:X:X:X:X:X:X:X:X:X:X:X:X:X:X:X:X:X:X:X:X:X. * <.1.&.&.>.8.> X :X:X:X:X:X:X:X:X:X:X:X:X:X:X:X:X:X:X:X:X:X:X:X:X:X:X:X:X",
":X:X:X:X:X:X:X:X:X:X:X:X:X:X:X:X:X:X:X:X:X:X:X:X:X:X:X  @ G 7.2.&.&   :X:X:X:X:X:X:X:X:X:X:X:X:X:X:X:X:X:X:X:X:X:X:X:X:X:X:X:X:X",
":X:X:X:X:X:X:X:X:X:X:X:X:X:X:X:X:X:X:X:X:X:X:X:X:X:X:X:X:Xo 7 Y +   :X:X:X:X:X:X:X:X:X:X:X:X:X:X:X:X:X:X:X:X:X:X:X:X:X:X:X:X:X:X",
":X:X:X:X:X:X:X:X:X:X:X:X:X:X:X:X:X:X:X:X:X:X:X:X:X:X:X:X:X:X  . :X:X:X:X:X:X:X:X:X:X:X:X:X:X:X:X:X:X:X:X:X:X:X:X:X:X:X:X:X:X:X:X",
":X:X:X:X:X:X:X:X:X:X:X:X:X:X:X:X:X:X:X:X:X:X:X:X:X:X:X:X:X:X:X:X:X:X:X:X:X:X:X:X:X:X:X:X:X:X:X:X:X:X:X:X:X:X:X:X:X:X:X:X:X:X:X:X",
":X:X:X:X:X:X:X:X:X:X:X:X:X:X:X:X:X:X:X:X:X:X:X:X:X:X:X:X:X:X:X:X:X:X:X:X:X:X:X:X:X:X:X:X:X:X:X:X:X:X:X:X:X:X:X:X:X:X:X:X:X:X:X:X",
":X:X:X:X:X:X:X:X:X:X:X:X:X:X:X:X:X:X:X:X:X:X:X:X:X:X:X:X:X:X:X:X:X:X:X:X:X:X:X:X:X:X:X:X:X:X:X:X:X:X:X:X:X:X:X:X:X:X:X:X:X:X:X:X",
":X:X:X:X:X:X:X:X:X:X:X:X:X:X:X:X:X:X:X:X:X:X:X:X:X:X:X:X:X:X:X:X:X:X:X:X:X:X:X:X:X:X:X:X:X:X:X:X:X:X:X:X:X:X:X:X:X:X:X:X:X:X:X:X",
":X:X:X:X:X:X:X:X:X:X:X:X:X:X:X:X:X:X:X:X:X:X:X:X:X:X:X:X:X:X:X:X:X:X:X:X:X:X:X:X:X:X:X:X:X:X:X:X:X:X:X:X:X:X:X:X:X:X:X:X:X:X:X:X",
":X:X:X:X:X:X:X:X:X:X:X:X:X:X:X:X:X:X:X:X:X:X:X:X:X:X:X:X:X:X:X:X:X:X:X:X:X:X:X:X:X:X:X:X:X:X:X:X:X:X:X:X:X:X:X:X:X:X:X:X:X:X:X:X",
":X:X:X:X:X:X:X:X:X:X:X:X:X:X:X:X:X:X:X:X:X:X:X:X:X:X:X:X:X:X:X:X:X:X:X:X:X:X:X:X:X:X:X:X:X:X:X:X:X:X:X:X:X:X:X:X:X:X:X:X:X:X:X:X",
":X:X:X:X:X:X:X:X:X:X:X:X:X:X:X:X:X:X:X:X:X:X:X:X:X:X:X:X:X:X:X:X:X:X:X:X:X:X:X:X:X:X:X:X:X:X:X:X:X:X:X:X:X:X:X:X:X:X:X:X:X:X:X:X"
};
