/* XPM */
static char *result[] = {
/* columns rows colors chars-per-pixel */
"65 65 38 1 ",
"  c #403E3E",
". c #413F3F",
"X c #424040",
"o c #434040",
"O c #434141",
"+ c #444242",
"@ c #454343",
"# c #464444",
"$ c #474444",
"% c #474545",
"& c #484646",
"* c #494747",
"= c #4A4747",
"- c #4A4848",
"; c #4B4848",
": c #4B4949",
"> c #4C4949",
", c #4C4A4A",
"< c #4D4A4A",
"1 c #4D4B4B",
"2 c #4E4B4B",
"3 c #4F4C4C",
"4 c #4F4D4D",
"5 c #514E4E",
"6 c #514F4F",
"7 c #525050",
"8 c #535151",
"9 c #545151",
"0 c #555252",
"q c #555353",
"w c #575454",
"e c #595656",
"r c #595757",
"t c #5A5757",
"y c #5B5858",
"u c #5C5959",
"i c #5D5A5A",
"p c #5E5B5B",
/* pixels */
"ppppppppppppppppppppppppppppppp99pppppppppppppppppppppppppppppppp",
"ppppppppppppppppppppppppppppppu##uppppppppppppppppppppppppppppppp",
"pppppppppppppppppppppppppppppp<++<ppppppppppppppppppppppppppppppp",
"pppppppppppppppppppppppppppppp$@@$ppppppppppppppppppppppppppppppp",
"pppppppppppppppppppppppppppppr@##@rpppppppppppppppppppppppppppppp",
"ppppppppppppppppppppppppppppp#    #pppppppppppppppppppppppppppppp",
"ppppppppppppppppppppppppppppy@    @yppppppppppppppppppppppppppppp",
"pppppppppppppppppppppppppppp@      @ppppppppppppppppppppppppppppp",
"ppppppppppppppppppppppppppp6@      @6pppppppppppppppppppppppppppp",
"ppppppppppppppppppppppppppu@        @uppppppppppppppppppppppppppp",
"pppppppppppppppppppppppppp@          @ppppppppppppppppppppppppppp",
"ppppppppppppppppppppppppp%@          @%pppppppppppppppppppppppppp",
"pppppppppppppppppppppppp<@            @<ppppppppppppppppppppppppp",
"ppppppppppppppppppppppp;@              @;pppppppppppppppppppppppp",
"ppppppppppppppppppppp5@@                @@5pppppppppppppppppppppp",
"pppppppppppppppppppp4@@@                @@@4ppppppppppppppppppppp",
"pppppppppppppppppppp:@@&                &@@:ppppppppppppppppppppp",
"ppppppppppppppppppppp$@@                @@$pppppppppppppppppppppp",
"pppppppppppppppppppppp<@                @<ppppppppppppppppppppppp",
"ppppppppppppppppppppppp0@              @0pppppppppppppppppppppppp",
"pppppppppppppppppppppppp&@            @&ppppppppppppppppppppppppp",
"ppppppppppppppppppppppppp@            @pppppppppppppppppppppppppp",
"ppppppppppppppppppppppppp8@          @8pppppppppppppppppppppppppp",
"pppppppppppppppppppppppppp@          @ppppppppppppppppppppppppppp",
"ppppppppppppppppppppppppppy@        @yppppppppppppppppppppppppppp",
"ppppppppppppppppppppppppppp@@      @@pppppppppppppppppppppppppppp",
"pppppppppppppppppppppppppppp@      @ppppppppppppppppppppppppppppp",
"pppppppppppppppppppppppppppp&@    @&ppppppppppppppppppppppppppppp",
"ppppppppppppppppppppppppppppu@    @uppppppppppppppppppppppppppppp",
"ppppppppppppppppppppppppppppp@    @pppppppppppppppppppppppppppppp",
"pppppppppppppppppppp;@@@@@2pp0@@@@0pp0-###2pppppppppppppppppppppp",
"ppppppppppppppppppw@@@++oo+@qp@@@@pr@+OO++@@#pppppppppppppppppppp",
"ppppppppppppppppp;@o....XO...+.XX.+....O+o..o@upppppppppppppppppp",
"pppppppppppppppp:o..           XX           ..oyppppppppppppppppp",
"pppppppppppppppu..                            .Xppppppppppppppppp",
"ppppppppppppppp+.                              .<pppppppppppppppp",
"ppppppppppppppp.                                @pppppppppppppppp",
"pppppppppppppp4.                                @4ppppppppppppppp",
"pppppppppppppp@                                  @ppppppppppppppp",
"pppppppppppppp@                                  @ppppppppppppppp",
"pppppppppppppp@                                  @ppppppppppppppp",
"pppppppppppppp@                                  @ppppppppppppppp",
"pppppppppppppp*@                                @1ppppppppppppppp",
"ppppppppppppppw@                                @tppppppppppppppp",
"ppppppppppppppp@                                @pppppppppppppppp",
"ppppppppppppppp3@                              @3pppppppppppppppp",
"pppppppppppppppp@                              @ppppppppppppppppp",
"pppppppppppppppp0@                            @0ppppppppppppppppp",
"ppppppppppppppppp#@                          @#pppppppppppppppppp",
"pppppppppppppppppp@                          @ppppppppppppppppppp",
"ppppppppppppppppppi@                        @ippppppppppppppppppp",
"pppppppppppppppppppi@                      @ipppppppppppppppppppp",
"ppppppppppppppppppppp@                    @pppppppppppppppppppppp",
"pppppppppppppppppppppp@@                @@ppppppppppppppppppppppp",
"ppppppppppppppppppppppp,@              @,pppppppppppppppppppppppp",
"ppppppppppppppppppppppppe@.          X+eppppppppppppppppppppppppp",
"pppppppppppppppppppppppppp$..      ..%ppppppppppppppppppppppppppp",
"ppppppppppppppppppppppppppp%.. .....5pppppppppppppppppppppppppppp",
"ppppppppppppppppppppppppppp0@+  . #<ppppppppppppppppppppppppppppp",
"pppppppppppppppppppppppppppp&@oO=+&eppppppppppppppppppppppppppppp",
"ppppppppppppppppppppppppppppt@@++#3pppppppppppppppppppppppppppppp",
"ppppppppppppppppppppppppppppp&@O.%upppppppppppppppppppppppppppppp",
"pppppppppppppppppppppppppppppu@O.>ppppppppppppppppppppppppppppppp",
"pppppppppppppppppppppppppppppp=OO7ppppppppppppppppppppppppppppppp",
"ppppppppppppppppppppppppppppppu%#uppppppppppppppppppppppppppppppp"
};
