/* XPM */
static char *result[] = {
/* columns rows colors chars-per-pixel */
"64 64 167 2 ",
"   c black",
".  c #010100",
"X  c #010101",
"o  c #020202",
"O  c #030302",
"+  c #040302",
"@  c #050403",
"#  c gray2",
"$  c #060504",
"%  c #070605",
"&  c #080706",
"*  c #090807",
"=  c #0A0907",
"-  c #090909",
";  c #0A0908",
":  c #0D0B09",
">  c #0F0D0B",
",  c #100E0C",
"<  c #110F0D",
"1  c #12100E",
"2  c #19100F",
"3  c #101010",
"4  c #151310",
"5  c #171411",
"6  c #1B1110",
"7  c #1C1111",
"8  c #181512",
"9  c #1B1714",
"0  c #1B1814",
"q  c #1D1A16",
"w  c #1B1B1B",
"e  c #201C18",
"r  c #221D19",
"t  c #221E19",
"y  c #231F1A",
"u  c #241F1B",
"i  c #2F1D1C",
"p  c #23201A",
"a  c #25211B",
"s  c #25211C",
"d  c #26211C",
"f  c #26211D",
"g  c #25221C",
"h  c #27221D",
"j  c #28231E",
"k  c #28241E",
"l  c #29251F",
"z  c #2C2721",
"x  c #2E2822",
"c  c #2E2923",
"v  c #2F2A23",
"b  c #3A2422",
"n  c #302B24",
"m  c #312C25",
"M  c #322D26",
"N  c #332E26",
"B  c #342E27",
"V  c #363028",
"C  c #373129",
"Z  c #38322A",
"A  c #39332B",
"S  c #3A332B",
"D  c #3A342B",
"F  c #3C362D",
"G  c #3D362E",
"H  c #3E372E",
"J  c #3E3E3E",
"K  c #44322D",
"L  c #4A3430",
"P  c #403930",
"I  c #413A30",
"U  c #433C32",
"Y  c #453E34",
"T  c #463E35",
"R  c #513935",
"E  c #573D38",
"W  c #5F3B3A",
"Q  c #5B3F3A",
"!  c #633D3B",
"~  c #484036",
"^  c #4B4338",
"/  c #4E453A",
"(  c #50473C",
")  c #54463C",
"_  c #564C40",
"`  c #574D41",
"'  c #584E42",
"]  c #595043",
"[  c #615749",
"{  c #64594B",
"}  c #655A4C",
"|  c #675C4D",
" . c #7E524E",
".. c #6B5F50",
"X. c #6C6051",
"o. c #726555",
"O. c #736656",
"+. c #786B5A",
"@. c #7A6C5B",
"#. c #7C6E5C",
"$. c #7F715F",
"%. c gray46",
"&. c #8B5654",
"*. c #9F625F",
"=. c #827461",
"-. c #837562",
";. c #857664",
":. c #8F7F6B",
">. c #A16461",
",. c #AC6B68",
"<. c #AD6B68",
"1. c #94846E",
"2. c #968570",
"3. c #9C8B75",
"4. c #A08F78",
"5. c #A7947D",
"6. c #A8957D",
"7. c #AA977F",
"8. c gray58",
"9. c #AF9C83",
"0. c #B4A187",
"q. c #B5A188",
"w. c #B8A48A",
"e. c #BAA58B",
"r. c #BCA48B",
"t. c #BEA98E",
"y. c #BFAA8F",
"u. c #C4AF93",
"i. c #C5AF93",
"p. c #C6B094",
"a. c #CAB397",
"s. c #CDB699",
"d. c #D1BB9C",
"f. c #D2BB9D",
"g. c #D4BC9E",
"h. c #D4BD9F",
"j. c #D7BFA1",
"k. c #D9C1A2",
"l. c #DBC3A4",
"z. c #DCC4A4",
"x. c #DDC5A5",
"c. c #DFC6A7",
"v. c #E1C8A8",
"b. c #E2C9A9",
"n. c #E4CBAA",
"m. c #E5CBAB",
"M. c #E8CEAD",
"N. c #E9CFAE",
"B. c #EBD2B0",
"V. c #ECD2B1",
"C. c #EED4B2",
"Z. c #EFD5B3",
"A. c #F0D6B4",
"S. c #F1D7B4",
"D. c #F2D7B5",
"F. c #F2D8B5",
"G. c #F3D8B6",
"H. c #F3D9B6",
"J. c #F4D9B7",
"K. c #F5DAB7",
"L. c #F5DBB8",
"P. c #F6DBB8",
"I. c gray78",
"U. c #ECECEC",
"Y. c #F4F4F4",
"T. c white",
"R. c None",
/* pixels */
"R.R.R.R.R.R.R.R.R.R.R.R.R.R.R.R.R.R.R.R.R.R.R.R.R.R.R.R.R.R.R.R.R.R.R.R.R.R.R.R.R.R.R.R.R.R.R.R.R.R.R.R.R.R.R.R.R.R.R.R.R.R.R.R.",
"R.R.R.R.R.R.R.R.R.R.R.R.R.R.R.R.R.R.R.R.R.R.R.R.R.R.R.R.R.R.R.R.R.R.R.R.R.R.R.R.R.R.R.R.R.R.R.R.R.R.R.R.R.R.R.R.R.R.R.R.R.R.R.R.",
"R.R.R.R.R.R.R.R.R.R.R.R.R.R.R.R.R.R.R.R.R.R.R.R.R.R.R.R.R.R.R.R.R.R.R.R.R.R.R.R.R.R.R.R.R.R.R.R.R.R.R.R.R.R.R.R.R.R.R.R.R.R.R.R.",
"R.R.R.R.R.R.R.R.R.R.R.R.R.R.R.R.R.R.R.R.R.R.R.R.R.R.R.R.R.R.R.R.R.R.R.R.R.R.R.R.R.R.R.R.R.R.R.R.R.R.R.R.R.R.R.R.R.R.R.R.R.R.R.R.",
"R.R.R.R.R.R.R.R.R.R.R.R.R.R.R.R.R.R.R.R.R.R.R.R.R.R.R.R.R.R.R.R.R.R.R.R.R.R.R.R.R.R.R.R.R.R.R.R.R.R.R.R.R.R.R.R.R.R.R.R.R.R.R.R.",
"R.R.R.R.R.R.R.R.R.R.R.R.R.R.R.R.R.R.R.R.R.R.R.R.R.R.R.R.R.R.R.R.R.R.R.R.R.R.R.R.R.R.R.R.R.R.R.R.R.R.R.R.R.R.R.R.R.R.R.R.R.R.R.R.",
"R.R.R.R.R.R.R.R.R.R.R.R.R.R.R.R.R.R.R.R.R.R.R.R.R.R.R.R.R.R.R.R.R.R.R.R.R.R.R.R.R.R.R.R.R.R.R.R.R.R.R.R.R.R.R.R.R.R.R.R.R.R.R.R.",
"R.R.R.R.R.R.R.R.R.R.R.R.R.R.R.R.R.R.R.R.R.R.R.R.R.R.R.R.R.R.R.R.R.R.R.R.R.R.R.R.R.R.R.R.R.R.R.R.R.R.R.R.R.R.R.R.R.R.R.R.R.R.R.R.",
"R.R.R.R.R.R.R.R.R.R.R.R.R.R.R.R.R.R.R.R.R.R.R.R.R.R.R.R.R.                      R.R.R.R.R.R.R.R.R.R.R.R.R.R.R.R.R.R.R.R.R.R.R.R.",
"R.R.R.R.R.R.R.R.R.R.R.R.R.R.R.R.R.R.R.R.R.R.R.R.R.R.                                  R.R.R.R.R.R.R.R.R.R.R.R.R.R.R.R.R.R.R.R.R.",
"R.R.R.R.R.R.R.R.R.R.R.R.R.R.R.R.R.R.R.R.R.R.R.R.                                          R.R.R.R.R.R.R.R.R.R.R.R.R.R.R.R.R.R.R.",
"R.R.R.R.R.R.R.R.R.R.R.R.R.R.R.R.R.R.R.R.R.R.R.                                              R.R.R.R.R.R.R.R.R.R.R.R.R.R.R.R.R.R.",
"R.R.R.R.R.R.R.R.R.R.R.R.R.R.R.R.R.R.R.R.R.R.              j h h h         o                   R.R.R.R.R.R.R.R.R.R.R.R.R.R.R.R.R.",
"R.R.R.R.R.R.R.R.R.R.R.R.R.R.R.R.R.R.R.R.R.              B q.P.P.m.    . P.-.                    R.R.R.R.R.R.R.R.R.R.R.R.R.R.R.R.",
"R.R.R.R.R.R.R.R.R.R.R.R.R.R.R.R.R.R.R.R.          O     h P.P.P.      p.P.P.P.                    R.R.R.R.R.R.R.R.R.R.R.R.R.R.R.",
"R.R.R.R.R.R.R.R.R.R.R.R.R.R.R.R.R.R.R.        * l.+.    < Z.P.P.      P.P.P.P.v.    * a h         R.R.R.R.R.R.R.R.R.R.R.R.R.R.R.",
"R.R.R.R.R.R.R.R.R.R.R.R.R.R.R.R.R.R.          O.P.P.X     l P.g.    4.P.P.P.P.P.P.  F P.h h         R.R.R.R.R.R.R.R.R.R.R.R.R.R.",
"R.R.R.R.R.R.R.R.R.R.R.R.R.R.R.R.R.R.> z     $ A.P.P.K.    N P.P.  p P.P.P.P.P.P.P.P.P.P.P.^ d       R.R.R.R.R.R.R.R.R.R.R.R.R.R.",
"R.R.R.R.R.R.R.R.R.R.R.R.R.R.R.R.R.  r 0     ` P.P.P.P.d.  P.P.P.P.P.P.n.D h h k a.P.P.P.P.P.M &       R.R.R.R.R.R.R.R.R.R.R.R.R.",
"R.R.R.R.R.R.R.R.R.R.R.R.R.R.R.R.R.  ..      P.P.P.P.P.P.P.P.P.P.P.P.[ h         @ M P.P.P.P.k.h       R.R.R.R.R.R.R.R.R.R.R.R.R.",
"R.R.R.R.R.R.R.R.R.R.R.R.R.R.R.R.  g P.    ' P.V.V Y ;.i.P.P.P.P.P.K.h       3 X   X b.P.P.P.P.h =               R.R.R.R.R.R.R.R.",
"R.R.R.R.R.R.R.R.R.R.R.R.R.R.R.R.  _ P.  X P.} h s     h h P.P.P.P.=.h   - T.T.%.#   M P.P.P.P.f.j   $ h h l j h   R.R.R.R.R.R.R.",
"R.R.R.R.R.R.R.R.R.R.R.R.        < 0.P.3.P.s.h           h h P.P.P.P     T.T.T.T.w   r P.P.P.P.P.9.h H P.P.P.P.o.h   R.R.R.R.R.R.",
"R.R.R.R.R.R.R.R.R.R.  5 f h x +.2.S.P.P.P.h               h P.P.P.U 4   J T.T.Y.    h P.P.P.P.P.:.| P.P.P.P.P.P.@.h   R.R.R.R.R.",
"R.R.R.R.R.R.R.R.R.  : t f.P.P.P.P.P.P.P.P.h     I.T.U.    h P.P.P.x.h             % } P.P.P.P.P.P.K.P.P.P.P.P.P.P.n h R.R.R.R.R.",
"R.R.R.R.R.R.R.R., < 6.P.P.P.P.P.P.P.P.P.P.h     T.T.T.    h P.P.P.P.X.e         1 l P.P.P.P.P.P.P.P.P.P.P.P.P.P.P.c.h R.R.R.R.R.",
"R.R.R.R.R.R.R.  8 c.P.P.P.P.P.P.P.P.P.P.P.h     X 8.    % A P.P.P.P.P.N.h 0 0 h 7.P.P.P.P.P.P.P.P.P.P.P.P.P.P.P.P.P.h   R.R.R.R.",
"R.R.R.R.R.R.R.u v P.P.P.P.P.P.P.P.P.P.P.P.m &           h P.P.P.P.P.P.P.P.P.P.P.P.P.P.P.P.P.P.P.P.P.P.P.P.P.P.P.P.P.h   R.R.R.R.",
"R.R.R.R.R.R.R.h b.P.P.P.P.P.P.P.P.P.P.P.P.P.C ;       v J.P.P.P.P.P.P.P.P.P.P.P.P.P.P.P.P.P.P.P.P.P.P.P.P.P.P.P.P.P.h   R.R.R.R.",
"R.R.R.R.R.R.  h P.P.P.P.P.P.P.P.P.P.P.P.P.P.P.P.F.j.P.P.P.P.P.P.P.P.P.P.P.P.P.P.P.P.P.P.P.P.P.P.P.P.P.P.P.P.P.P.P.P.h   R.R.R.R.",
"R.R.R.R.R.R.  h P.P.P.P.P.P.P.P.P.P.P.P.P.P.P.P.P.P.P.P.P.P.P.P.P.P.P.P.P.P.P.P.P.P.P.P.P.P.P.P.P.P.P.P.P.P.P.P.P.P.h   R.R.R.R.",
"R.R.R.R.R.R.  h P.P.P.P.P.P.P.P.P.P.P.P.P.P.P.P.P.P.P.P.P.P.P.P.P.P.P.P.P.P.P.P.P.P.P.P.P.P.P.P.P.P.P.P.P.P.P.P.P.h.h R.R.R.R.R.",
"R.R.R.R.R.R.  h P.P.P.P.P.P.P.P.P.P.P.P.P.P.P.P.P.P.P.P.P.P.P.P.P.P.P.P.P.P.P.P.P.P.P.P.P.P.P.P.P.P.P.P.P.P.P.P.V.h h R.R.R.R.R.",
"R.R.R.R.R.R.R.h p.P.P.P.P.P.P.P.P.P.P.P.P.P.P.P.P.P.b.e.H.K.P.P.P.P.P.P.P.P.P.P.P.P.P.P.P.P.P.P.P.P.P.P.P.P.C.c h h R.R.R.R.R.R.",
"R.R.R.R.R.R.R.h h P.P.P.P.P.P.P.P.P.P.P.P.P.P.P.P.T i ,.7 h H.P.P.P.P.P.P.P.P.P.P.P.P.P.P.P.P.#.;.P.G.w.z h h h   R.R.R.R.R.R.R.",
"R.R.R.R.R.R.R.  h F.P.P.P.P.P.P.P.P.P.P.P.P.P.P.t.W <.<.<.R / P.P.P.P.P.P.P.P.P.P.P.P.P.P.( X y & h h h       R.R.R.R.R.R.R.R.R.",
"R.R.R.R.R.R.R.R.h I P.P.P.P.P.P.P.P.P.P.P.P.P.P.Q <.<.<.<.<.S P.P.P.P.P.P.P.P.P.P.P.P.Z       R.  R.R.R.R.R.R.R.R.R.R.R.R.R.R.R.",
"R.R.R.R.R.R.R.R.  h P.P.P.P.P.P.P.P.P.P.P.P.P.j <.<.<.<.<.>.S.P.P.P.P.P.P.P.P.P.B.    X   R.R.R.R.R.R.R.R.R.R.R.R.R.R.R.R.R.R.R.",
"R.R.R.R.R.R.R.R.R.h n P.P.P.P.P.P.P.P.P.P.P.5.*.<.<.<.<.<.C P.P.P.P.P.P.P.P.D.    q   R.R.R.R.R.R.R.R.R.R.R.R.R.R.R.R.R.R.R.R.R.",
"R.R.R.R.R.R.R.R.R.  h $.P.P.P.P.P.P.P.P.P.P.K <.<.<.<.<.E k.P.P.P.P.P.P.C     9   R.R.R.R.R.R.R.R.R.R.R.R.R.R.R.R.R.R.R.R.R.R.R.",
"R.R.R.R.R.R.R.R.R.R.  h { P.P.P.P.P.P.P.P.h <.<.<.<.<.L u.P.P.P.P.y.&         R.R.R.R.R.R.R.R.R.R.R.R.R.R.R.R.R.R.R.R.R.R.R.R.R.",
"R.R.R.R.R.R.R.R.R.R.R.  h c P.P.P.P.P.P.1. .<.<.<.<.) r.P.P.K.]         R.R.R.R.R.R.R.R.R.R.R.R.R.R.R.R.R.R.R.R.R.R.R.R.R.R.R.R.",
"R.R.R.R.R.R.R.R.R.R.R.R.  h h M.P.P.P.P.m ! <.<.<.6 ) L.G $       R.R.R.R.R.R.R.R.R.R.R.R.R.R.R.R.R.R.R.R.R.R.R.R.R.R.R.R.R.R.R.",
"R.R.R.R.R.R.R.R.R.R.R.R.R.R.h h h h ~ z.k 2 &.b X +           R.R.R.R.R.R.R.R.R.R.R.R.R.R.R.R.R.R.R.R.R.R.R.R.R.R.R.R.R.R.R.R.R.",
"R.R.R.R.R.R.R.R.R.R.R.R.R.R.R.R.    &                 R.R.R.R.R.R.R.R.R.R.R.R.R.R.R.R.R.R.R.R.R.R.R.R.R.R.R.R.R.R.R.R.R.R.R.R.R.",
"R.R.R.R.R.R.R.R.R.R.R.R.R.R.R.R.R.R.R.        R.R.R.R.R.R.R.R.R.R.R.R.R.R.R.R.R.R.R.R.R.R.R.R.R.R.R.R.R.R.R.R.R.R.R.R.R.R.R.R.R.",
"R.R.R.R.R.R.R.R.R.R.R.R.R.R.R.R.R.R.R.R.R.R.R.R.R.R.R.R.R.R.R.R.R.R.R.R.R.R.R.R.R.R.R.R.R.R.R.R.R.R.R.R.R.R.R.R.R.R.R.R.R.R.R.R.",
"R.R.R.R.R.R.R.R.R.R.R.R.R.R.R.R.R.R.R.R.R.R.R.R.R.R.R.R.R.R.R.R.R.R.R.R.R.R.R.R.R.R.R.R.R.R.R.R.R.R.R.R.R.R.R.R.R.R.R.R.R.R.R.R.",
"R.R.R.R.R.R.R.R.R.R.R.R.R.R.R.R.R.R.R.R.R.R.R.R.R.R.R.R.R.R.R.R.R.R.R.R.R.R.R.R.R.R.R.R.R.R.R.R.R.R.R.R.R.R.R.R.R.R.R.R.R.R.R.R.",
"R.R.R.R.R.R.R.R.R.R.R.R.R.R.R.R.R.R.R.R.R.R.R.R.R.R.R.R.R.R.R.R.R.R.R.R.R.R.R.R.R.R.R.R.R.R.R.R.R.R.R.R.R.R.R.R.R.R.R.R.R.R.R.R.",
"R.R.R.R.R.R.R.R.R.R.R.R.R.R.R.R.R.R.R.R.R.R.R.R.R.R.R.R.R.R.R.R.R.R.R.R.R.R.R.R.R.R.R.R.R.R.R.R.R.R.R.R.R.R.R.R.R.R.R.R.R.R.R.R.",
"R.R.R.R.R.R.R.R.R.R.R.R.R.R.R.R.R.R.R.R.R.R.R.R.R.R.R.R.R.R.R.R.R.R.R.R.R.R.R.R.R.R.R.R.R.R.R.R.R.R.R.R.R.R.R.R.R.R.R.R.R.R.R.R.",
"R.R.R.R.R.R.R.R.R.R.R.R.R.R.R.R.R.R.R.R.R.R.R.R.R.R.R.R.R.R.R.R.R.R.R.R.R.R.R.R.R.R.R.R.R.R.R.R.R.R.R.R.R.R.R.R.R.R.R.R.R.R.R.R.",
"R.R.R.R.R.R.R.R.R.R.R.R.R.R.R.R.R.R.R.R.R.R.R.R.R.R.R.R.R.R.R.R.R.R.R.R.R.R.R.R.R.R.R.R.R.R.R.R.R.R.R.R.R.R.R.R.R.R.R.R.R.R.R.R.",
"R.R.R.R.R.R.R.R.R.R.R.R.R.R.R.R.R.R.R.R.R.R.R.R.R.R.R.R.R.R.R.R.R.R.R.R.R.R.R.R.R.R.R.R.R.R.R.R.R.R.R.R.R.R.R.R.R.R.R.R.R.R.R.R.",
"R.R.R.R.R.R.R.R.R.R.R.R.R.R.R.R.R.R.R.R.R.R.R.R.R.R.R.R.R.R.R.R.R.R.R.R.R.R.R.R.R.R.R.R.R.R.R.R.R.R.R.R.R.R.R.R.R.R.R.R.R.R.R.R.",
"R.R.R.R.R.R.R.R.R.R.R.R.R.R.R.R.R.R.R.R.R.R.R.R.R.R.R.R.R.R.R.R.R.R.R.R.R.R.R.R.R.R.R.R.R.R.R.R.R.R.R.R.R.R.R.R.R.R.R.R.R.R.R.R.",
"R.R.R.R.R.R.R.R.R.R.R.R.R.R.R.R.R.R.R.R.R.R.R.R.R.R.R.R.R.R.R.R.R.R.R.R.R.R.R.R.R.R.R.R.R.R.R.R.R.R.R.R.R.R.R.R.R.R.R.R.R.R.R.R.",
"R.R.R.R.R.R.R.R.R.R.R.R.R.R.R.R.R.R.R.R.R.R.R.R.R.R.R.R.R.R.R.R.R.R.R.R.R.R.R.R.R.R.R.R.R.R.R.R.R.R.R.R.R.R.R.R.R.R.R.R.R.R.R.R.",
"R.R.R.R.R.R.R.R.R.R.R.R.R.R.R.R.R.R.R.R.R.R.R.R.R.R.R.R.R.R.R.R.R.R.R.R.R.R.R.R.R.R.R.R.R.R.R.R.R.R.R.R.R.R.R.R.R.R.R.R.R.R.R.R.",
"R.R.R.R.R.R.R.R.R.R.R.R.R.R.R.R.R.R.R.R.R.R.R.R.R.R.R.R.R.R.R.R.R.R.R.R.R.R.R.R.R.R.R.R.R.R.R.R.R.R.R.R.R.R.R.R.R.R.R.R.R.R.R.R.",
"R.R.R.R.R.R.R.R.R.R.R.R.R.R.R.R.R.R.R.R.R.R.R.R.R.R.R.R.R.R.R.R.R.R.R.R.R.R.R.R.R.R.R.R.R.R.R.R.R.R.R.R.R.R.R.R.R.R.R.R.R.R.R.R.",
"R.R.R.R.R.R.R.R.R.R.R.R.R.R.R.R.R.R.R.R.R.R.R.R.R.R.R.R.R.R.R.R.R.R.R.R.R.R.R.R.R.R.R.R.R.R.R.R.R.R.R.R.R.R.R.R.R.R.R.R.R.R.R.R.",
"R.R.R.R.R.R.R.R.R.R.R.R.R.R.R.R.R.R.R.R.R.R.R.R.R.R.R.R.R.R.R.R.R.R.R.R.R.R.R.R.R.R.R.R.R.R.R.R.R.R.R.R.R.R.R.R.R.R.R.R.R.R.R.R."
};
